STARTFONT 2.1
COMMENT
COMMENT Converted from OpenType font "BeVietnam-Italic.ttf" by "otf2bdf 3.0".
COMMENT
FONT -FreeType-Be Vietnam-Medium-I-Normal--25-180-100-100-P-128-ISO10646-1
SIZE 18 100 100
FONTBOUNDINGBOX 36 33 -6 -6
STARTPROPERTIES 19
FOUNDRY "FreeType"
FAMILY_NAME "Be Vietnam"
WEIGHT_NAME "Medium"
SLANT "I"
SETWIDTH_NAME "Normal"
ADD_STYLE_NAME ""
PIXEL_SIZE 25
POINT_SIZE 180
RESOLUTION_X 100
RESOLUTION_Y 100
SPACING "P"
AVERAGE_WIDTH 128
CHARSET_REGISTRY "ISO10646"
CHARSET_ENCODING "1"
FONT_ASCENT 29
FONT_DESCENT 6
COPYRIGHT "Copyright 2019 The Bevietnam Project Authors (https://github.com/bettergui/beVietnam)"
_OTF_FONTFILE "BeVietnam-Italic.ttf"
_OTF_PSNAME "BeVietnam-Italic"
ENDPROPERTIES
CHARS 445
STARTCHAR 000D
ENCODING 13
SWIDTH 600 0
DWIDTH 15 0
BBX 0 0 0 0
BITMAP
ENDCHAR
STARTCHAR 0020
ENCODING 32
SWIDTH 200 0
DWIDTH 5 0
BBX 0 0 0 0
BITMAP
ENDCHAR
STARTCHAR 0021
ENCODING 33
SWIDTH 240 0
DWIDTH 6 0
BBX 5 19 2 0
BITMAP
18
18
18
38
38
30
30
30
30
30
20
60
60
60
00
00
40
E0
C0
ENDCHAR
STARTCHAR 0022
ENCODING 34
SWIDTH 560 0
DWIDTH 14 0
BBX 9 7 4 12
BITMAP
1080
2100
4200
C200
E700
E700
4200
ENDCHAR
STARTCHAR 0023
ENCODING 35
SWIDTH 840 0
DWIDTH 21 0
BBX 19 18 3 0
BITMAP
006180
00C180
00C300
00C300
018300
1FFFE0
3FFFE0
030400
030C00
060C00
061800
0C1800
FFFF80
0C3000
183000
186000
106000
306000
ENDCHAR
STARTCHAR 0024
ENCODING 36
SWIDTH 560 0
DWIDTH 14 0
BBX 13 21 2 -2
BITMAP
0080
0080
07E0
1FF0
3938
3118
3118
3100
3A00
3F00
0FE0
02F0
0230
C230
C430
E470
64E0
7FC0
3F80
0400
0800
ENDCHAR
STARTCHAR 0025
ENCODING 37
SWIDTH 800 0
DWIDTH 20 0
BBX 17 18 3 0
BITMAP
1C0300
7E0600
460C00
C60C00
C61800
C43000
7C3000
006000
00C000
00C000
018000
030700
030D80
061880
0C1080
0C1080
181980
301F00
ENDCHAR
STARTCHAR 0026
ENCODING 38
SWIDTH 600 0
DWIDTH 15 0
BBX 14 18 2 0
BITMAP
00E0
03F8
0718
0E1C
0C1C
0C00
0C00
0600
0700
1F0C
3998
61F0
E0F0
C060
C0F0
E1B8
7F18
3E0C
ENDCHAR
STARTCHAR 0027
ENCODING 39
SWIDTH 280 0
DWIDTH 7 0
BBX 3 6 4 12
BITMAP
40
E0
E0
60
40
C0
ENDCHAR
STARTCHAR 0028
ENCODING 40
SWIDTH 440 0
DWIDTH 11 0
BBX 9 25 4 -5
BITMAP
0080
0300
0600
0C00
0C00
1800
3800
3000
7000
6000
E000
E000
C000
C000
C000
C000
C000
C000
C000
C000
C000
6000
6000
3000
1800
ENDCHAR
STARTCHAR 0029
ENCODING 41
SWIDTH 440 0
DWIDTH 11 0
BBX 8 24 2 -4
BITMAP
08
0C
06
06
03
03
03
03
03
03
03
03
03
03
06
06
0E
0C
0C
18
30
20
40
80
ENDCHAR
STARTCHAR 002A
ENCODING 42
SWIDTH 440 0
DWIDTH 11 0
BBX 9 9 4 10
BITMAP
0600
0400
7580
3F00
1C00
7F00
C900
1800
1800
ENDCHAR
STARTCHAR 002B
ENCODING 43
SWIDTH 560 0
DWIDTH 14 0
BBX 10 10 4 3
BITMAP
0C00
0C00
0C00
0C00
FFC0
FF80
1800
1800
1800
1800
ENDCHAR
STARTCHAR 002C
ENCODING 44
SWIDTH 280 0
DWIDTH 7 0
BBX 3 6 2 -3
BITMAP
E0
E0
20
20
40
80
ENDCHAR
STARTCHAR 002D
ENCODING 45
SWIDTH 600 0
DWIDTH 15 0
BBX 10 2 5 7
BITMAP
7FC0
FFC0
ENDCHAR
STARTCHAR 002E
ENCODING 46
SWIDTH 240 0
DWIDTH 6 0
BBX 3 3 2 0
BITMAP
40
E0
E0
ENDCHAR
STARTCHAR 002F
ENCODING 47
SWIDTH 480 0
DWIDTH 12 0
BBX 15 24 1 -4
BITMAP
0006
0006
000C
001C
0018
0030
0030
0060
00E0
00C0
0180
0180
0300
0700
0600
0C00
0C00
1800
1800
3000
6000
6000
C000
C000
ENDCHAR
STARTCHAR 0030
ENCODING 48
SWIDTH 600 0
DWIDTH 15 0
BBX 14 18 2 0
BITMAP
03E0
0FF0
1C38
1818
301C
301C
701C
601C
6018
6018
6018
E018
E038
E030
6070
70E0
7FC0
3F80
ENDCHAR
STARTCHAR 0031
ENCODING 49
SWIDTH 480 0
DWIDTH 12 0
BBX 10 18 2 0
BITMAP
0180
0380
0F80
1F00
1B00
2300
0300
0300
0300
0600
0600
0600
0600
0600
0600
0C00
7FC0
FF80
ENDCHAR
STARTCHAR 0032
ENCODING 50
SWIDTH 560 0
DWIDTH 14 0
BBX 13 18 2 0
BITMAP
03E0
0FF0
1C38
1818
3018
3018
0018
0038
0030
0060
01C0
0380
0700
1C00
3800
7000
FFF0
FFE0
ENDCHAR
STARTCHAR 0033
ENCODING 51
SWIDTH 560 0
DWIDTH 14 0
BBX 13 18 2 0
BITMAP
03E0
0FF0
1C38
1818
0018
0018
0018
0030
07E0
07E0
0070
0030
0030
0030
E030
60E0
7FC0
3F80
ENDCHAR
STARTCHAR 0034
ENCODING 52
SWIDTH 600 0
DWIDTH 15 0
BBX 13 18 2 0
BITMAP
0030
0070
00F0
01B0
03B0
0760
0660
0C60
1860
3060
60E0
E0C0
FFF8
FFF8
00C0
00C0
01C0
0180
ENDCHAR
STARTCHAR 0035
ENCODING 53
SWIDTH 600 0
DWIDTH 15 0
BBX 13 18 3 0
BITMAP
1FF8
3FF0
3FF0
3000
3000
6000
6380
6FE0
7060
6070
0030
0030
0070
C060
C060
E1C0
7F80
3F00
ENDCHAR
STARTCHAR 0036
ENCODING 54
SWIDTH 560 0
DWIDTH 14 0
BBX 12 18 2 0
BITMAP
00C0
0180
0380
0300
0600
0C00
1800
37C0
3FF0
7070
6030
6030
C030
C030
E070
60E0
7FC0
3F80
ENDCHAR
STARTCHAR 0037
ENCODING 55
SWIDTH 480 0
DWIDTH 12 0
BBX 12 18 3 0
BITMAP
7FF0
FFF0
FFE0
0060
00C0
01C0
0180
0300
0300
0600
0E00
0C00
1800
1800
3000
7000
6000
C000
ENDCHAR
STARTCHAR 0038
ENCODING 56
SWIDTH 600 0
DWIDTH 15 0
BBX 14 18 2 0
BITMAP
03E0
0FF8
1C38
181C
381C
3018
3018
1830
0FE0
1FE0
3030
6018
E018
C018
C030
E070
7FE0
3F80
ENDCHAR
STARTCHAR 0039
ENCODING 57
SWIDTH 560 0
DWIDTH 14 0
BBX 12 18 3 0
BITMAP
0780
1FE0
3870
7030
6030
6030
C030
E030
6070
70E0
3F60
0CC0
0180
0300
0700
0E00
0C00
1800
ENDCHAR
STARTCHAR 003A
ENCODING 58
SWIDTH 280 0
DWIDTH 7 0
BBX 3 13 2 0
BITMAP
E0
E0
C0
00
00
00
00
00
00
00
40
E0
E0
ENDCHAR
STARTCHAR 003B
ENCODING 59
SWIDTH 280 0
DWIDTH 7 0
BBX 5 17 2 -4
BITMAP
18
38
30
00
00
00
00
00
00
00
00
F0
F0
20
20
40
80
ENDCHAR
STARTCHAR 003C
ENCODING 60
SWIDTH 560 0
DWIDTH 14 0
BBX 10 11 4 3
BITMAP
0040
01C0
0780
1E00
7800
E000
E000
7800
1E00
0700
0300
ENDCHAR
STARTCHAR 003D
ENCODING 61
SWIDTH 680 0
DWIDTH 17 0
BBX 13 8 4 4
BITMAP
7FF8
7FF8
0000
0000
0000
0000
FFF0
FFF0
ENDCHAR
STARTCHAR 003E
ENCODING 62
SWIDTH 560 0
DWIDTH 14 0
BBX 10 11 3 3
BITMAP
2000
3000
3C00
0F00
0380
01C0
03C0
0F00
3C00
F000
C000
ENDCHAR
STARTCHAR 003F
ENCODING 63
SWIDTH 560 0
DWIDTH 14 0
BBX 11 18 4 0
BITMAP
0F80
3FC0
70E0
E060
C060
C060
00E0
00C0
0180
0700
0E00
1C00
1800
0000
0000
1000
3800
3000
ENDCHAR
STARTCHAR 0040
ENCODING 64
SWIDTH 1000 0
DWIDTH 25 0
BBX 22 22 3 -4
BITMAP
001E00
01FFC0
0780E0
0E0030
180018
300018
20F20C
61DE0C
43060C
C3060C
C2060C
C6040C
C60C18
C60E18
C31630
C3E3E0
C00000
600000
700000
380000
1FFF00
07FF00
ENDCHAR
STARTCHAR 0041
ENCODING 65
SWIDTH 680 0
DWIDTH 17 0
BBX 15 18 1 0
BITMAP
0070
0070
00F0
00F0
01B0
0198
0318
0318
0618
0618
0C1C
1FFC
1FFC
380C
300C
600E
6006
C006
ENDCHAR
STARTCHAR 0042
ENCODING 66
SWIDTH 600 0
DWIDTH 15 0
BBX 14 18 2 0
BITMAP
1FC0
1FF8
383C
300C
300C
300C
3018
3038
7FE0
7FF0
6018
6018
601C
6018
E018
C030
FFE0
FFC0
ENDCHAR
STARTCHAR 0043
ENCODING 67
SWIDTH 680 0
DWIDTH 17 0
BBX 16 18 3 0
BITMAP
01F0
07FC
1E1C
380E
3006
6007
6000
C000
C000
C000
C000
C000
C00C
C00C
E018
7078
3FE0
1FC0
ENDCHAR
STARTCHAR 0044
ENCODING 68
SWIDTH 680 0
DWIDTH 17 0
BBX 16 18 2 0
BITMAP
1FC0
1FF8
387C
300E
3006
3007
3007
3007
7007
6007
6006
6006
600E
601C
E038
C070
FFE0
FF80
ENDCHAR
STARTCHAR 0045
ENCODING 69
SWIDTH 560 0
DWIDTH 14 0
BBX 14 18 2 0
BITMAP
1FFC
1FF8
3800
3800
3000
3000
3000
3000
7FE0
7FE0
6000
6000
6000
6000
E000
C000
FFE0
FFE0
ENDCHAR
STARTCHAR 0046
ENCODING 70
SWIDTH 480 0
DWIDTH 12 0
BBX 13 18 2 0
BITMAP
1FF8
1FF8
3800
3800
3000
3000
3000
3000
7FE0
7FE0
6000
6000
6000
6000
E000
C000
C000
C000
ENDCHAR
STARTCHAR 0047
ENCODING 71
SWIDTH 680 0
DWIDTH 17 0
BBX 15 18 3 0
BITMAP
01F0
07F8
1E1C
380E
3006
6006
6000
C000
C000
C0FE
C0FE
C00C
C00C
C00C
E01C
703C
7FEC
1F88
ENDCHAR
STARTCHAR 0048
ENCODING 72
SWIDTH 640 0
DWIDTH 16 0
BBX 16 18 2 0
BITMAP
1803
1803
3803
3807
3006
3006
3006
3006
7FFE
7FFE
600C
600C
600C
600C
E01C
C01C
C018
C018
ENDCHAR
STARTCHAR 0049
ENCODING 73
SWIDTH 240 0
DWIDTH 6 0
BBX 5 18 2 0
BITMAP
18
18
18
38
30
30
30
30
30
70
60
60
60
60
60
E0
C0
C0
ENDCHAR
STARTCHAR 004A
ENCODING 74
SWIDTH 320 0
DWIDTH 8 0
BBX 9 18 1 0
BITMAP
0380
0300
0300
0300
0300
0700
0600
0600
0600
0600
0600
0E00
0C00
0C00
0C00
0C00
F800
F000
ENDCHAR
STARTCHAR 004B
ENCODING 75
SWIDTH 600 0
DWIDTH 15 0
BBX 15 18 2 0
BITMAP
180E
181C
3830
3060
30C0
3180
3300
3600
7E00
7E00
7700
6300
6180
61C0
E0C0
C0E0
C060
C070
ENDCHAR
STARTCHAR 004C
ENCODING 76
SWIDTH 520 0
DWIDTH 13 0
BBX 10 18 2 0
BITMAP
1800
1800
3800
3800
3000
3000
3000
3000
7000
6000
6000
6000
6000
6000
E000
C000
FFC0
FFC0
ENDCHAR
STARTCHAR 004D
ENCODING 77
SWIDTH 800 0
DWIDTH 20 0
BBX 20 18 2 0
BITMAP
1C00F0
1C00F0
3C01E0
3E01E0
3603E0
360360
360660
3706C0
730CC0
631CC0
6318C0
6338C0
63B1C0
61F180
E1E180
C1C180
C1C180
C18180
ENDCHAR
STARTCHAR 004E
ENCODING 78
SWIDTH 680 0
DWIDTH 17 0
BBX 17 18 2 0
BITMAP
180180
1C0180
3C0380
3E0300
360300
370300
330300
338300
718700
61C600
60C600
60E600
606600
607600
E03E00
C03C00
C01C00
C01C00
ENDCHAR
STARTCHAR 004F
ENCODING 79
SWIDTH 720 0
DWIDTH 18 0
BBX 16 18 3 0
BITMAP
01F0
0FFC
1E1C
380E
3006
6007
E007
C007
C007
C007
C006
C006
C00E
C01C
E018
7070
7FE0
1F80
ENDCHAR
STARTCHAR 0050
ENCODING 80
SWIDTH 560 0
DWIDTH 14 0
BBX 14 18 2 0
BITMAP
1F80
1FF0
3878
301C
300C
300C
300C
301C
7018
6070
7FE0
7FC0
6000
6000
E000
C000
C000
C000
ENDCHAR
STARTCHAR 0051
ENCODING 81
SWIDTH 720 0
DWIDTH 18 0
BBX 16 19 3 -1
BITMAP
01F0
0FFC
1E1C
380E
3006
6007
E007
C007
C007
C007
C006
C306
C18E
C0DC
E0D8
7078
7FF0
1FB0
0018
ENDCHAR
STARTCHAR 0052
ENCODING 82
SWIDTH 600 0
DWIDTH 15 0
BBX 14 18 2 0
BITMAP
1F80
1FF8
3878
381C
300C
300C
300C
3018
7038
7FF0
7FC0
6180
6180
60C0
E0C0
C0E0
C060
C070
ENDCHAR
STARTCHAR 0053
ENCODING 83
SWIDTH 560 0
DWIDTH 14 0
BBX 14 18 2 0
BITMAP
03E0
0FF0
1C38
381C
301C
301C
3000
3800
1F80
07E0
0070
0038
C038
E038
E030
7070
7FE0
3F80
ENDCHAR
STARTCHAR 0054
ENCODING 84
SWIDTH 560 0
DWIDTH 14 0
BBX 13 18 4 0
BITMAP
FFF8
FFF0
0600
0600
0600
0E00
0C00
0C00
0C00
0C00
0C00
1C00
1800
1800
1800
1800
1800
3800
ENDCHAR
STARTCHAR 0055
ENCODING 85
SWIDTH 680 0
DWIDTH 17 0
BBX 15 18 3 0
BITMAP
3006
7006
6006
6006
6006
600E
600C
E00C
C00C
C00C
C00C
C01C
C018
C038
E030
E070
7FE0
3F80
ENDCHAR
STARTCHAR 0056
ENCODING 86
SWIDTH 600 0
DWIDTH 15 0
BBX 15 18 3 0
BITMAP
E006
E006
600C
600C
6018
6018
7030
3030
3060
3060
30C0
30C0
3980
1980
1B00
1B00
1E00
1E00
ENDCHAR
STARTCHAR 0057
ENCODING 87
SWIDTH 960 0
DWIDTH 24 0
BBX 24 18 3 0
BITMAP
E01803
E01C03
603C07
603C06
607C06
606C0C
60EC0C
60CC18
61CE18
618630
638630
630670
370660
360660
3E07C0
3C03C0
3C0380
380380
ENDCHAR
STARTCHAR 0058
ENCODING 88
SWIDTH 640 0
DWIDTH 16 0
BBX 17 18 1 0
BITMAP
180180
1C0380
0C0700
0E0600
060C00
071800
033000
03F000
01E000
01C000
03E000
076000
067000
0C3000
183800
381800
701C00
E00C00
ENDCHAR
STARTCHAR 0059
ENCODING 89
SWIDTH 600 0
DWIDTH 15 0
BBX 13 18 4 0
BITMAP
C018
E038
6030
6060
60E0
30C0
3180
3380
1B00
1E00
1E00
0C00
1C00
1C00
1800
1800
1800
1800
ENDCHAR
STARTCHAR 005A
ENCODING 90
SWIDTH 600 0
DWIDTH 15 0
BBX 16 18 1 0
BITMAP
1FFF
1FFF
1FFE
000C
001C
0038
0070
00E0
01C0
0380
0300
0600
0C00
1800
3800
7000
7FF8
FFF8
ENDCHAR
STARTCHAR 005B
ENCODING 91
SWIDTH 440 0
DWIDTH 11 0
BBX 12 25 1 -5
BITMAP
0FF0
0C00
0C00
0C00
0C00
0800
1800
1800
1800
1800
1000
1000
3000
3000
3000
3000
2000
6000
6000
6000
6000
6000
4000
FF00
FE00
ENDCHAR
STARTCHAR 005C
ENCODING 92
SWIDTH 480 0
DWIDTH 12 0
BBX 8 24 3 -4
BITMAP
C0
C0
C0
60
60
60
70
30
30
30
38
18
18
18
0C
0C
0C
0C
06
06
06
06
03
03
ENDCHAR
STARTCHAR 005D
ENCODING 93
SWIDTH 400 0
DWIDTH 10 0
BBX 11 25 1 -5
BITMAP
0FE0
0060
0060
0060
0060
0040
0040
00C0
00C0
00C0
00C0
0080
0180
0180
0180
0180
0180
0100
0300
0300
0300
0300
0200
FE00
FE00
ENDCHAR
STARTCHAR 005E
ENCODING 94
SWIDTH 400 0
DWIDTH 10 0
BBX 9 5 3 14
BITMAP
0E00
1E00
3300
6300
C180
ENDCHAR
STARTCHAR 005F
ENCODING 95
SWIDTH 680 0
DWIDTH 17 0
BBX 12 2 3 0
BITMAP
FFF0
FFF0
ENDCHAR
STARTCHAR 0060
ENCODING 96
SWIDTH 240 0
DWIDTH 6 0
BBX 4 4 4 16
BITMAP
E0
60
60
30
ENDCHAR
STARTCHAR 0061
ENCODING 97
SWIDTH 600 0
DWIDTH 15 0
BBX 13 14 2 0
BITMAP
0300
0FD8
3CD8
3038
6038
6038
C038
C030
C030
C030
E070
E0B0
7FF0
3E60
ENDCHAR
STARTCHAR 0062
ENCODING 98
SWIDTH 600 0
DWIDTH 15 0
BBX 14 19 2 0
BITMAP
1800
1800
1800
3800
3000
30C0
33F0
3678
3818
7018
701C
6018
6018
6018
6038
E030
D070
DFE0
CF80
ENDCHAR
STARTCHAR 0063
ENCODING 99
SWIDTH 560 0
DWIDTH 14 0
BBX 12 14 2 0
BITMAP
0100
0FE0
1CF0
3030
6030
6030
C000
C000
C000
C030
C060
60E0
7FC0
3F00
ENDCHAR
STARTCHAR 0064
ENCODING 100
SWIDTH 600 0
DWIDTH 15 0
BBX 15 19 2 0
BITMAP
000E
000C
000C
000C
000C
031C
0FDC
3CF8
3038
6038
6038
C038
C030
C030
C030
E070
E0B0
7F70
3E60
ENDCHAR
STARTCHAR 0065
ENCODING 101
SWIDTH 560 0
DWIDTH 14 0
BBX 12 14 2 0
BITMAP
0180
0FE0
3870
3030
6030
E030
FFE0
FF80
C000
C000
E060
60E0
7FC0
1F00
ENDCHAR
STARTCHAR 0066
ENCODING 102
SWIDTH 360 0
DWIDTH 9 0
BBX 12 24 -1 -6
BITMAP
00F0
01C0
0180
0380
0300
0FE0
0FE0
0300
0300
0700
0600
0600
0600
0600
0600
0E00
0C00
0C00
0C00
0C00
0C00
1800
F800
F000
ENDCHAR
STARTCHAR 0067
ENCODING 103
SWIDTH 600 0
DWIDTH 15 0
BBX 13 19 2 -5
BITMAP
0200
1FD8
3CD8
7038
6038
6038
E038
C030
C030
C070
E070
71B0
7F70
1C60
0060
00E0
00C0
1F80
1F00
ENDCHAR
STARTCHAR 0068
ENCODING 104
SWIDTH 600 0
DWIDTH 15 0
BBX 13 19 2 0
BITMAP
1800
1800
1800
3800
3800
3040
33F0
36F8
3838
7018
7018
6018
6018
6038
6030
E030
C030
C030
C030
ENDCHAR
STARTCHAR 0069
ENCODING 105
SWIDTH 240 0
DWIDTH 6 0
BBX 5 18 2 0
BITMAP
18
18
00
00
00
30
30
30
30
70
70
60
60
60
60
E0
C0
C0
ENDCHAR
STARTCHAR 006A
ENCODING 106
SWIDTH 240 0
DWIDTH 6 0
BBX 10 23 -2 -5
BITMAP
01C0
0180
0000
0000
0000
0300
0300
0300
0300
0300
0700
0600
0600
0600
0600
0600
0E00
0C00
0C00
0C00
0C00
1C00
F800
ENDCHAR
STARTCHAR 006B
ENCODING 107
SWIDTH 480 0
DWIDTH 12 0
BBX 11 19 2 0
BITMAP
1800
1800
1800
1800
3800
3000
3060
31C0
3380
3700
7E00
7800
7C00
6C00
6600
6700
E300
C380
C1C0
ENDCHAR
STARTCHAR 006C
ENCODING 108
SWIDTH 280 0
DWIDTH 7 0
BBX 5 19 2 0
BITMAP
18
18
18
18
38
30
30
30
30
30
70
60
60
60
60
60
E0
F8
78
ENDCHAR
STARTCHAR 006D
ENCODING 109
SWIDTH 920 0
DWIDTH 23 0
BBX 22 14 2 0
BITMAP
008000
33E1F8
36F778
38341C
70381C
70380C
60301C
603018
603018
603018
E03018
C07018
C06038
C06030
ENDCHAR
STARTCHAR 006E
ENCODING 110
SWIDTH 600 0
DWIDTH 15 0
BBX 13 14 2 0
BITMAP
0040
33F0
36F8
3838
7018
7018
6018
6018
6038
6030
E030
C030
C030
C030
ENDCHAR
STARTCHAR 006F
ENCODING 111
SWIDTH 560 0
DWIDTH 14 0
BBX 13 14 2 0
BITMAP
0100
0FE0
1CF0
3030
6030
6038
C038
C030
C030
C030
C060
60E0
7FC0
3F00
ENDCHAR
STARTCHAR 0070
ENCODING 112
SWIDTH 600 0
DWIDTH 15 0
BBX 15 19 1 -5
BITMAP
0060
19F8
1B3C
1C0C
380C
380E
300C
300C
300C
301C
7018
6838
6FF0
67C0
6000
6000
E000
C000
C000
ENDCHAR
STARTCHAR 0071
ENCODING 113
SWIDTH 600 0
DWIDTH 15 0
BBX 14 19 2 -5
BITMAP
0300
0FDC
3CF8
3038
6038
6038
C038
C038
C030
C030
E070
E0B0
7F70
3E60
0060
0060
0060
0060
00E0
ENDCHAR
STARTCHAR 0072
ENCODING 114
SWIDTH 320 0
DWIDTH 8 0
BBX 9 13 2 0
BITMAP
3780
3F00
3800
7000
6000
6000
6000
6000
6000
E000
C000
C000
C000
ENDCHAR
STARTCHAR 0073
ENCODING 115
SWIDTH 480 0
DWIDTH 12 0
BBX 11 14 2 0
BITMAP
0200
1FC0
38C0
60E0
6060
6000
3E00
1F80
01C0
00C0
C0C0
E1C0
FF80
3E00
ENDCHAR
STARTCHAR 0074
ENCODING 116
SWIDTH 400 0
DWIDTH 10 0
BBX 8 18 3 0
BITMAP
18
18
18
18
18
FF
FF
30
30
30
30
70
60
60
60
60
7C
7C
ENDCHAR
STARTCHAR 0075
ENCODING 117
SWIDTH 600 0
DWIDTH 15 0
BBX 12 13 3 0
BITMAP
6030
6030
6030
E030
C030
C070
C060
C060
C060
C0E0
E1E0
FFE0
7CC0
ENDCHAR
STARTCHAR 0076
ENCODING 118
SWIDTH 520 0
DWIDTH 13 0
BBX 12 13 3 0
BITMAP
C030
C060
6060
60C0
60C0
6180
6180
3300
3300
3600
3E00
3C00
3C00
ENDCHAR
STARTCHAR 0077
ENCODING 119
SWIDTH 800 0
DWIDTH 20 0
BBX 19 13 3 0
BITMAP
C0E060
C0E0C0
C1E0C0
C1E180
636180
636300
666300
663600
6C3600
6C3600
783C00
783C00
703800
ENDCHAR
STARTCHAR 0078
ENCODING 120
SWIDTH 520 0
DWIDTH 13 0
BBX 13 13 1 0
BITMAP
3818
1830
1C70
0CE0
0EC0
0780
0700
0F80
0D80
19C0
30C0
70E0
E060
ENDCHAR
STARTCHAR 0079
ENCODING 121
SWIDTH 480 0
DWIDTH 12 0
BBX 14 18 0 -5
BITMAP
180C
181C
1818
1830
1C30
0C60
0C60
0CC0
0CC0
0780
0700
0700
0600
0600
0C00
1800
F800
F000
ENDCHAR
STARTCHAR 007A
ENCODING 122
SWIDTH 480 0
DWIDTH 12 0
BBX 13 13 1 0
BITMAP
1FF8
1FF0
0060
00C0
0180
0380
0700
0E00
1C00
3800
7000
7FE0
FFC0
ENDCHAR
STARTCHAR 007B
ENCODING 123
SWIDTH 440 0
DWIDTH 11 0
BBX 9 26 4 -5
BITMAP
0380
0F80
0C00
1800
1800
1800
1800
1800
1800
3000
3000
3000
7000
E000
6000
6000
6000
6000
6000
6000
6000
C000
C000
C000
C000
7800
ENDCHAR
STARTCHAR 007C
ENCODING 124
SWIDTH 280 0
DWIDTH 7 0
BBX 7 30 2 -6
BITMAP
06
04
0C
0C
0C
0C
0C
08
18
18
18
18
18
30
30
30
30
30
20
60
60
60
60
60
40
C0
C0
C0
C0
C0
ENDCHAR
STARTCHAR 007D
ENCODING 125
SWIDTH 440 0
DWIDTH 11 0
BBX 10 26 2 -5
BITMAP
0700
0F80
00C0
00C0
0180
0180
0180
0180
0180
0180
0300
0300
0300
01C0
0300
0200
0600
0600
0600
0600
0600
0C00
0C00
0C00
1C00
F800
ENDCHAR
STARTCHAR 007E
ENCODING 126
SWIDTH 560 0
DWIDTH 14 0
BBX 9 3 4 8
BITMAP
7880
FF80
8600
ENDCHAR
STARTCHAR 00A0
ENCODING 160
SWIDTH 200 0
DWIDTH 5 0
BBX 0 0 0 0
BITMAP
ENDCHAR
STARTCHAR 00A1
ENCODING 161
SWIDTH 240 0
DWIDTH 6 0
BBX 6 19 2 -6
BITMAP
08
1C
18
00
00
10
30
30
30
30
20
60
60
60
60
60
E0
E0
C0
ENDCHAR
STARTCHAR 00A2
ENCODING 162
SWIDTH 600 0
DWIDTH 15 0
BBX 13 17 2 -2
BITMAP
0100
0100
0FE0
1D70
3930
7218
6218
6200
E200
C200
E230
6470
64E0
7FC0
1F00
0400
0400
ENDCHAR
STARTCHAR 00A3
ENCODING 163
SWIDTH 560 0
DWIDTH 14 0
BBX 14 18 1 0
BITMAP
01F0
07F8
0E1C
1C0C
1C0C
180C
1C00
1C00
0C00
0E00
3FE0
0600
0600
0C00
0C00
1800
FFF8
FFF8
ENDCHAR
STARTCHAR 00A4
ENCODING 164
SWIDTH 560 0
DWIDTH 14 0
BBX 12 12 3 3
BITMAP
2010
7FB0
3DE0
3060
6060
4020
C060
C060
60C0
71C0
FFC0
8040
ENDCHAR
STARTCHAR 00A5
ENCODING 165
SWIDTH 600 0
DWIDTH 15 0
BBX 13 18 4 0
BITMAP
C018
E038
6030
6060
60E0
30C0
3180
3380
1B00
1E00
1E00
FF80
1C00
1800
FF80
1800
1800
1800
ENDCHAR
STARTCHAR 00A6
ENCODING 166
SWIDTH 280 0
DWIDTH 7 0
BBX 7 30 2 -6
BITMAP
06
04
0C
0C
0C
0C
0C
08
18
18
18
18
18
00
00
00
00
00
20
60
60
60
60
60
40
C0
C0
C0
C0
C0
ENDCHAR
STARTCHAR 00A7
ENCODING 167
SWIDTH 520 0
DWIDTH 13 0
BBX 12 18 2 0
BITMAP
03C0
0FE0
1870
3830
3800
1E00
3FE0
70F0
6030
6030
7070
3FE0
07C0
00E0
C0E0
E0C0
7F80
3F00
ENDCHAR
STARTCHAR 00A8
ENCODING 168
SWIDTH 360 0
DWIDTH 9 0
BBX 7 2 4 16
BITMAP
E6
C6
ENDCHAR
STARTCHAR 00A9
ENCODING 169
SWIDTH 800 0
DWIDTH 20 0
BBX 19 18 2 0
BITMAP
007C00
03FF00
060180
1C00C0
10F840
318C60
630660
660660
440060
440060
C40040
C40CC0
4618C0
63F180
608300
300600
1C3C00
0FF000
ENDCHAR
STARTCHAR 00AA
ENCODING 170
SWIDTH 120 0
DWIDTH 3 0
BBX 4 3 2 10
BITMAP
F0
B0
E0
ENDCHAR
STARTCHAR 00AB
ENCODING 171
SWIDTH 600 0
DWIDTH 15 0
BBX 14 10 3 3
BITMAP
0E1C
1C30
3860
60C0
C180
C380
E180
70C0
3060
1830
ENDCHAR
STARTCHAR 00AC
ENCODING 172
SWIDTH 640 0
DWIDTH 16 0
BBX 13 6 4 7
BITMAP
FFF8
FFF0
0030
0030
0030
0030
ENDCHAR
STARTCHAR 00AD
ENCODING 173
SWIDTH 600 0
DWIDTH 15 0
BBX 10 2 5 7
BITMAP
7FC0
FFC0
ENDCHAR
STARTCHAR 00AE
ENCODING 174
SWIDTH 320 0
DWIDTH 8 0
BBX 6 7 4 11
BITMAP
10
68
B4
D4
F4
88
60
ENDCHAR
STARTCHAR 00AF
ENCODING 175
SWIDTH 360 0
DWIDTH 9 0
BBX 7 1 4 16
BITMAP
FE
ENDCHAR
STARTCHAR 00B0
ENCODING 176
SWIDTH 280 0
DWIDTH 7 0
BBX 4 5 5 17
BITMAP
20
F0
90
90
E0
ENDCHAR
STARTCHAR 00B1
ENCODING 177
SWIDTH 600 0
DWIDTH 15 0
BBX 11 14 3 0
BITMAP
0300
0300
0300
0600
7FE0
7FE0
0600
0600
0600
0C00
0000
0000
FFC0
FFC0
ENDCHAR
STARTCHAR 00B2
ENCODING 178
SWIDTH 280 0
DWIDTH 7 0
BBX 8 10 2 9
BITMAP
1E
32
23
02
06
0C
10
60
FE
FE
ENDCHAR
STARTCHAR 00B3
ENCODING 179
SWIDTH 280 0
DWIDTH 7 0
BBX 7 10 3 9
BITMAP
3C
66
06
06
1C
0C
04
84
F8
60
ENDCHAR
STARTCHAR 00B4
ENCODING 180
SWIDTH 240 0
DWIDTH 6 0
BBX 4 4 4 16
BITMAP
30
30
60
C0
ENDCHAR
STARTCHAR 00B5
ENCODING 181
SWIDTH 640 0
DWIDTH 16 0
BBX 14 18 1 -5
BITMAP
181C
1818
3818
3018
3018
3038
3038
3030
7030
7070
70F0
7FBC
7F3C
6000
E000
C000
C000
C000
ENDCHAR
STARTCHAR 00B6
ENCODING 182
SWIDTH 520 0
DWIDTH 13 0
BBX 12 18 3 0
BITMAP
07F0
3FE0
7F20
FF20
FF60
FF60
FE60
FE40
7E40
1E40
06C0
06C0
04C0
0480
0C80
0C80
0D80
0980
ENDCHAR
STARTCHAR 00B7
ENCODING 183
SWIDTH 280 0
DWIDTH 7 0
BBX 3 3 4 8
BITMAP
40
E0
E0
ENDCHAR
STARTCHAR 00B8
ENCODING 184
SWIDTH 240 0
DWIDTH 6 0
BBX 5 6 0 -6
BITMAP
60
60
F8
08
10
F0
ENDCHAR
STARTCHAR 00B9
ENCODING 185
SWIDTH 240 0
DWIDTH 6 0
BBX 6 9 2 10
BITMAP
18
38
78
18
10
10
10
10
FC
ENDCHAR
STARTCHAR 00BA
ENCODING 186
SWIDTH 160 0
DWIDTH 4 0
BBX 4 3 2 10
BITMAP
70
90
E0
ENDCHAR
STARTCHAR 00BB
ENCODING 187
SWIDTH 600 0
DWIDTH 15 0
BBX 14 10 2 3
BITMAP
30E0
3860
1C30
0C18
060C
060C
0C38
1870
70C0
E180
ENDCHAR
STARTCHAR 00BC
ENCODING 188
SWIDTH 800 0
DWIDTH 20 0
BBX 17 18 3 0
BITMAP
100100
300300
500600
B00C00
301C00
301800
203000
206000
F8C000
00C380
018300
030500
060900
061B00
0C3300
183F80
300200
700200
ENDCHAR
STARTCHAR 00BD
ENCODING 189
SWIDTH 840 0
DWIDTH 21 0
BBX 18 18 3 0
BITMAP
100180
300300
500300
B00600
300C00
301800
203800
203000
F86000
00C380
0186C0
018C40
0300C0
060180
0C0300
0C0600
181C00
301F80
ENDCHAR
STARTCHAR 00BE
ENCODING 190
SWIDTH 840 0
DWIDTH 21 0
BBX 18 18 3 0
BITMAP
180180
3E0180
460300
060600
1C0C00
0C1800
041800
CC3000
F86000
20C180
00C180
018280
030580
060980
061980
0C1FC0
180100
300100
ENDCHAR
STARTCHAR 00BF
ENCODING 191
SWIDTH 520 0
DWIDTH 13 0
BBX 12 18 2 -6
BITMAP
0180
0180
0180
0000
0000
0380
0300
0600
0C00
3800
7000
6000
C070
C060
C060
E0C0
7FC0
3F00
ENDCHAR
STARTCHAR 00C0
ENCODING 192
SWIDTH 680 0
DWIDTH 17 0
BBX 15 24 1 0
BITMAP
00C0
00C0
0060
0060
0020
0000
0070
0070
00F0
00F0
01B0
0198
0318
0318
0618
0618
0C1C
1FFC
1FFC
380C
300C
600E
6006
C006
ENDCHAR
STARTCHAR 00C1
ENCODING 193
SWIDTH 680 0
DWIDTH 17 0
BBX 15 24 1 0
BITMAP
0006
000C
000C
0018
0030
0000
0070
0070
00F0
00F0
01B0
0198
0318
0318
0618
0618
0C1C
1FFC
1FFC
380C
300C
600E
6006
C006
ENDCHAR
STARTCHAR 00C2
ENCODING 194
SWIDTH 680 0
DWIDTH 17 0
BBX 15 23 1 0
BITMAP
0038
0078
00CC
0186
0000
0070
0070
00F0
00F0
01B0
0198
0318
0318
0618
0618
0C1C
1FFC
1FFC
380C
300C
600E
6006
C006
ENDCHAR
STARTCHAR 00C3
ENCODING 195
SWIDTH 680 0
DWIDTH 17 0
BBX 15 23 1 0
BITMAP
0042
00FE
011C
0000
0000
0070
0070
00F0
00F0
01B0
0198
0318
0318
0618
0618
0C1C
1FFC
1FFC
380C
300C
600E
6006
C006
ENDCHAR
STARTCHAR 00C4
ENCODING 196
SWIDTH 680 0
DWIDTH 17 0
BBX 15 23 1 0
BITMAP
00C4
01CE
01CE
0000
0000
0070
0070
00F0
00F0
01B0
0198
0318
0318
0618
0618
0C1C
1FFC
1FFC
380C
300C
600E
6006
C006
ENDCHAR
STARTCHAR 00C5
ENCODING 197
SWIDTH 680 0
DWIDTH 17 0
BBX 15 24 1 0
BITMAP
0038
0048
0048
0078
0000
0000
0070
0070
00F0
00F0
01B0
0198
0318
0318
0618
0618
0C1C
1FFC
1FFC
380C
300C
600E
6006
C006
ENDCHAR
STARTCHAR 00C6
ENCODING 198
SWIDTH 920 0
DWIDTH 23 0
BBX 24 18 1 0
BITMAP
000FFF
001FFF
003E00
003600
007600
00E600
00CE00
018E00
038FFC
070FFC
060C00
0FFC00
1FFC00
181C00
301800
701800
601FFC
C01FF8
ENDCHAR
STARTCHAR 00C7
ENCODING 199
SWIDTH 680 0
DWIDTH 17 0
BBX 16 24 3 -6
BITMAP
01F0
07FC
1E1C
380E
3006
6007
6000
C000
C000
C000
C000
C000
C00E
C00C
E018
7078
3FE0
1FC0
0600
0700
0180
0080
0180
0F00
ENDCHAR
STARTCHAR 00C8
ENCODING 200
SWIDTH 560 0
DWIDTH 14 0
BBX 14 24 2 0
BITMAP
0700
0300
0300
0180
0180
0000
1FFC
1FF8
3800
3800
3000
3000
3000
3000
7FE0
7FE0
6000
6000
6000
6000
E000
C000
FFE0
FFE0
ENDCHAR
STARTCHAR 00C9
ENCODING 201
SWIDTH 560 0
DWIDTH 14 0
BBX 14 24 2 0
BITMAP
0018
0030
0060
0060
00C0
0000
1FFC
1FF8
3800
3800
3000
3000
3000
3000
7FE0
7FE0
6000
6000
6000
6000
E000
C000
FFE0
FFE0
ENDCHAR
STARTCHAR 00CA
ENCODING 202
SWIDTH 560 0
DWIDTH 14 0
BBX 14 23 2 0
BITMAP
00C0
01E0
0330
0630
0000
1FFC
1FF8
3800
3800
3000
3000
3000
3000
7FE0
7FE0
6000
6000
6000
6000
E000
C000
FFE0
FFE0
ENDCHAR
STARTCHAR 00CB
ENCODING 203
SWIDTH 560 0
DWIDTH 14 0
BBX 14 23 2 0
BITMAP
0210
0738
0630
0000
0000
1FFC
1FF8
3800
3800
3000
3000
3000
3000
7FE0
7FE0
6000
6000
6000
6000
E000
C000
FFE0
FFE0
ENDCHAR
STARTCHAR 00CC
ENCODING 204
SWIDTH 240 0
DWIDTH 6 0
BBX 5 24 2 0
BITMAP
70
30
30
18
18
00
18
18
18
38
30
30
30
30
30
70
60
60
60
60
60
E0
C0
C0
ENDCHAR
STARTCHAR 00CD
ENCODING 205
SWIDTH 240 0
DWIDTH 6 0
BBX 9 24 2 0
BITMAP
0180
0300
0600
0C00
0800
0000
1800
1800
1800
3800
3000
3000
3000
3000
3000
7000
6000
6000
6000
6000
6000
E000
C000
C000
ENDCHAR
STARTCHAR 00CE
ENCODING 206
SWIDTH 240 0
DWIDTH 6 0
BBX 8 23 2 0
BITMAP
0C
1E
37
E3
00
18
18
18
38
30
30
30
30
30
70
60
60
60
60
60
E0
C0
C0
ENDCHAR
STARTCHAR 00CF
ENCODING 207
SWIDTH 240 0
DWIDTH 6 0
BBX 9 23 2 0
BITMAP
2100
7380
6300
0000
0000
1800
1800
1800
3800
3000
3000
3000
3000
3000
7000
6000
6000
6000
6000
6000
E000
C000
C000
ENDCHAR
STARTCHAR 00D0
ENCODING 208
SWIDTH 680 0
DWIDTH 17 0
BBX 15 18 3 0
BITMAP
1F80
3FF8
30FC
300E
300E
3006
7006
6006
FE06
FC06
6006
600E
E00C
C01C
C038
C0F0
FFE0
FF80
ENDCHAR
STARTCHAR 00D1
ENCODING 209
SWIDTH 680 0
DWIDTH 17 0
BBX 17 23 2 0
BITMAP
004600
01FC00
031800
000000
000000
180180
1C0180
3C0380
3E0300
360300
370300
330300
338300
718700
61C600
60C600
60E600
606600
607600
E03E00
C03C00
C01C00
C01C00
ENDCHAR
STARTCHAR 00D2
ENCODING 210
SWIDTH 720 0
DWIDTH 18 0
BBX 16 24 3 0
BITMAP
0380
0180
0180
00C0
00C0
0000
01F0
0FFC
1E1C
380E
3006
6007
E007
C007
C007
C007
C006
C006
C00E
C01C
E018
7070
7FE0
1F80
ENDCHAR
STARTCHAR 00D3
ENCODING 211
SWIDTH 720 0
DWIDTH 18 0
BBX 16 24 3 0
BITMAP
000C
0018
0030
0020
0060
0000
01F0
0FFC
1E1C
380E
3006
6007
E007
C007
C007
C007
C006
C006
C00E
C01C
E018
7070
7FE0
1F80
ENDCHAR
STARTCHAR 00D4
ENCODING 212
SWIDTH 720 0
DWIDTH 18 0
BBX 16 23 3 0
BITMAP
0060
00F0
0198
0318
0000
01F0
0FFC
1E1C
380E
3006
6007
E007
C007
C007
C007
C006
C006
C00E
C01C
E018
7070
7FE0
1F80
ENDCHAR
STARTCHAR 00D5
ENCODING 213
SWIDTH 720 0
DWIDTH 18 0
BBX 16 23 3 0
BITMAP
0084
03FC
0238
0000
0000
01F0
0FFC
1E1C
380E
3006
6007
E007
C007
C007
C007
C006
C006
C00E
C01C
E018
7070
7FE0
1F80
ENDCHAR
STARTCHAR 00D6
ENCODING 214
SWIDTH 720 0
DWIDTH 18 0
BBX 16 23 3 0
BITMAP
0108
039C
0318
0000
0000
01F0
0FFC
1E1C
380E
3006
6007
E007
C007
C007
C007
C006
C006
C00E
C01C
E018
7070
7FE0
1F80
ENDCHAR
STARTCHAR 00D7
ENCODING 215
SWIDTH 520 0
DWIDTH 13 0
BBX 9 8 4 4
BITMAP
2100
6380
3700
3C00
1C00
7E00
E700
C200
ENDCHAR
STARTCHAR 00D8
ENCODING 216
SWIDTH 720 0
DWIDTH 18 0
BBX 18 20 2 -1
BITMAP
0000C0
00F980
03FF00
0F0F00
1C0F00
180F80
301B80
303180
706180
60C380
60C380
618300
630300
660700
6C0600
7C0C00
383C00
3FF000
6FE000
C00000
ENDCHAR
STARTCHAR 00D9
ENCODING 217
SWIDTH 680 0
DWIDTH 17 0
BBX 15 24 3 0
BITMAP
0300
0300
0180
0180
00C0
0000
3006
7006
6006
6006
6006
600E
600C
E00C
C00C
C00C
C00C
C01C
C018
C038
E030
E070
7FE0
3F80
ENDCHAR
STARTCHAR 00DA
ENCODING 218
SWIDTH 680 0
DWIDTH 17 0
BBX 15 24 3 0
BITMAP
0018
0038
0030
0060
00C0
0000
3006
7006
6006
6006
6006
600E
600C
E00C
C00C
C00C
C00C
C01C
C018
C038
E030
E070
7FE0
3F80
ENDCHAR
STARTCHAR 00DB
ENCODING 219
SWIDTH 680 0
DWIDTH 17 0
BBX 15 23 3 0
BITMAP
00E0
01E0
0330
0618
0000
3006
7006
6006
6006
6006
600E
600C
E00C
C00C
C00C
C00C
C01C
C018
C038
E030
E070
7FE0
3F80
ENDCHAR
STARTCHAR 00DC
ENCODING 220
SWIDTH 680 0
DWIDTH 17 0
BBX 15 23 3 0
BITMAP
0318
0738
0338
0000
0000
3006
7006
6006
6006
6006
600E
600C
E00C
C00C
C00C
C00C
C01C
C018
C038
E030
E070
7FE0
3F80
ENDCHAR
STARTCHAR 00DD
ENCODING 221
SWIDTH 600 0
DWIDTH 15 0
BBX 13 24 4 0
BITMAP
0060
00E0
00C0
0180
0300
0000
C018
E038
6030
6060
60E0
30C0
3180
3380
1B00
1E00
1E00
0C00
1C00
1C00
1800
1800
1800
1800
ENDCHAR
STARTCHAR 00DE
ENCODING 222
SWIDTH 560 0
DWIDTH 14 0
BBX 13 18 2 0
BITMAP
1800
1800
3800
3000
3FF0
30F8
3018
3018
7018
6018
6018
6038
6070
7FE0
FF80
C000
C000
C000
ENDCHAR
STARTCHAR 00DF
ENCODING 223
SWIDTH 560 0
DWIDTH 14 0
BBX 13 18 2 0
BITMAP
03E0
0FF0
1C38
1818
3018
3038
3030
3060
77C0
67E0
6060
6030
6030
6030
E060
C0E0
CFC0
CF00
ENDCHAR
STARTCHAR 00E0
ENCODING 224
SWIDTH 600 0
DWIDTH 15 0
BBX 13 19 2 0
BITMAP
0600
0300
0300
0180
0000
0300
0FD8
3CD8
3038
6038
6038
C038
C030
C030
C030
E070
E0B0
7FF0
3E60
ENDCHAR
STARTCHAR 00E1
ENCODING 225
SWIDTH 600 0
DWIDTH 15 0
BBX 13 19 2 0
BITMAP
0030
0060
00C0
0080
0000
0300
0FD8
3CD8
3038
6038
6038
C038
C030
C030
C030
E070
E0B0
7FF0
3E60
ENDCHAR
STARTCHAR 00E2
ENCODING 226
SWIDTH 600 0
DWIDTH 15 0
BBX 13 18 2 0
BITMAP
01C0
0360
0E30
0000
0300
0FD8
3CD8
3038
6038
6038
C038
C030
C030
C030
E070
E0B0
7FF0
3E60
ENDCHAR
STARTCHAR 00E3
ENCODING 227
SWIDTH 600 0
DWIDTH 15 0
BBX 13 18 2 0
BITMAP
0790
0CF0
0000
0000
0300
0FD8
3CD8
3038
6038
6038
C038
C030
C030
C030
E070
E0B0
7FF0
3E60
ENDCHAR
STARTCHAR 00E4
ENCODING 228
SWIDTH 600 0
DWIDTH 15 0
BBX 13 18 2 0
BITMAP
0630
0670
0000
0000
0300
0FD8
3CD8
3038
6038
6038
C038
C030
C030
C030
E070
E0B0
7FF0
3E60
ENDCHAR
STARTCHAR 00E5
ENCODING 229
SWIDTH 600 0
DWIDTH 15 0
BBX 13 20 2 0
BITMAP
00C0
0160
0220
0340
0180
0000
0300
0FD8
3CD8
3038
6038
6038
C038
C030
C030
C030
E070
E0B0
7FF0
3E60
ENDCHAR
STARTCHAR 00E6
ENCODING 230
SWIDTH 920 0
DWIDTH 23 0
BBX 21 14 2 0
BITMAP
000080
0FC7F0
3CEE38
307818
603018
003018
007FF8
3FFFF8
606000
C06000
C0F030
C1B070
FF3FE0
7E0F80
ENDCHAR
STARTCHAR 00E7
ENCODING 231
SWIDTH 560 0
DWIDTH 14 0
BBX 12 20 2 -6
BITMAP
0100
0FE0
1CF0
3030
6030
6030
C000
C000
C000
C030
C060
60E0
7FC0
3F00
0C00
0E00
1F00
0100
0300
1E00
ENDCHAR
STARTCHAR 00E8
ENCODING 232
SWIDTH 560 0
DWIDTH 14 0
BBX 12 19 2 0
BITMAP
0600
0300
0300
0180
0000
0180
0FE0
3870
3030
6030
E030
FFE0
FF80
C000
C000
E060
60E0
7FC0
1F00
ENDCHAR
STARTCHAR 00E9
ENCODING 233
SWIDTH 560 0
DWIDTH 14 0
BBX 12 19 2 0
BITMAP
0030
0060
00C0
0080
0000
0180
0FE0
3870
3030
6030
E030
FFE0
FF80
C000
C000
E060
60E0
7FC0
1F00
ENDCHAR
STARTCHAR 00EA
ENCODING 234
SWIDTH 560 0
DWIDTH 14 0
BBX 12 18 2 0
BITMAP
01C0
0360
0630
0800
0180
0FE0
3870
3030
6030
E030
FFE0
FF80
C000
C000
E060
60E0
7FC0
1F00
ENDCHAR
STARTCHAR 00EB
ENCODING 235
SWIDTH 560 0
DWIDTH 14 0
BBX 12 18 2 0
BITMAP
0630
0670
0000
0000
0180
0FE0
3870
3030
6030
E030
FFE0
FF80
C000
C000
E060
60E0
7FC0
1F00
ENDCHAR
STARTCHAR 00EC
ENCODING 236
SWIDTH 240 0
DWIDTH 6 0
BBX 4 19 2 0
BITMAP
60
70
30
30
00
00
30
30
30
30
70
70
60
60
60
60
E0
C0
C0
ENDCHAR
STARTCHAR 00ED
ENCODING 237
SWIDTH 240 0
DWIDTH 6 0
BBX 8 19 2 0
BITMAP
07
06
0C
18
00
00
30
30
30
30
70
70
60
60
60
60
E0
C0
C0
ENDCHAR
STARTCHAR 00EE
ENCODING 238
SWIDTH 240 0
DWIDTH 6 0
BBX 7 18 2 0
BITMAP
3C
6E
C6
00
00
30
30
30
30
70
70
60
60
60
60
E0
C0
C0
ENDCHAR
STARTCHAR 00EF
ENCODING 239
SWIDTH 240 0
DWIDTH 6 0
BBX 8 18 2 0
BITMAP
E7
E7
00
00
00
30
30
30
30
70
70
60
60
60
60
E0
C0
C0
ENDCHAR
STARTCHAR 00F0
ENCODING 240
SWIDTH 600 0
DWIDTH 15 0
BBX 14 20 2 0
BITMAP
0180
01EC
0070
00F8
0198
0018
0318
0FC8
3CE8
3038
6038
6038
E038
C030
C030
C030
E060
60E0
7FC0
3F00
ENDCHAR
STARTCHAR 00F1
ENCODING 241
SWIDTH 600 0
DWIDTH 15 0
BBX 13 18 2 0
BITMAP
0798
04F0
0000
0000
0040
33F0
36F8
3838
7018
7018
6018
6018
6038
6030
E030
C030
C030
C030
ENDCHAR
STARTCHAR 00F2
ENCODING 242
SWIDTH 560 0
DWIDTH 14 0
BBX 13 19 2 0
BITMAP
0600
0700
0300
0300
0000
0100
0FE0
1CF0
3030
6030
6038
C038
C030
C030
C030
C060
60E0
7FC0
3F00
ENDCHAR
STARTCHAR 00F3
ENCODING 243
SWIDTH 560 0
DWIDTH 14 0
BBX 13 19 2 0
BITMAP
0070
0060
00C0
0180
0000
0100
0FE0
1CF0
3030
6030
6038
C038
C030
C030
C030
C060
60E0
7FC0
3F00
ENDCHAR
STARTCHAR 00F4
ENCODING 244
SWIDTH 560 0
DWIDTH 14 0
BBX 13 18 2 0
BITMAP
03C0
06E0
0C60
0000
0100
0FE0
1CF0
3030
6030
6038
C038
C030
C030
C030
C060
60E0
7FC0
3F00
ENDCHAR
STARTCHAR 00F5
ENCODING 245
SWIDTH 560 0
DWIDTH 14 0
BBX 13 18 2 0
BITMAP
07B0
0DE0
0000
0000
0100
0FE0
1CF0
3030
6030
6038
C038
C030
C030
C030
C060
60E0
7FC0
3F00
ENDCHAR
STARTCHAR 00F6
ENCODING 246
SWIDTH 560 0
DWIDTH 14 0
BBX 13 18 2 0
BITMAP
0E70
0E70
0000
0000
0100
0FE0
1CF0
3030
6030
6038
C038
C030
C030
C030
C060
60E0
7FC0
3F00
ENDCHAR
STARTCHAR 00F7
ENCODING 247
SWIDTH 600 0
DWIDTH 15 0
BBX 10 12 3 2
BITMAP
1800
1C00
1800
0000
0000
FFC0
FFC0
0000
0000
0C00
1C00
1800
ENDCHAR
STARTCHAR 00F8
ENCODING 248
SWIDTH 560 0
DWIDTH 14 0
BBX 13 16 2 -1
BITMAP
0018
0110
0FF0
1CF0
30F0
60B0
61B8
C338
C230
C630
CC30
D860
70E0
7FC0
7F00
C000
ENDCHAR
STARTCHAR 00F9
ENCODING 249
SWIDTH 600 0
DWIDTH 15 0
BBX 12 19 3 0
BITMAP
0C00
0600
0600
0200
0000
0000
6030
6030
6030
E030
C030
C070
C060
C060
C060
C0E0
E1E0
FFE0
7CC0
ENDCHAR
STARTCHAR 00FA
ENCODING 250
SWIDTH 600 0
DWIDTH 15 0
BBX 12 19 3 0
BITMAP
00E0
00C0
0180
0300
0000
0000
6030
6030
6030
E030
C030
C070
C060
C060
C060
C0E0
E1E0
FFE0
7CC0
ENDCHAR
STARTCHAR 00FB
ENCODING 251
SWIDTH 600 0
DWIDTH 15 0
BBX 12 18 3 0
BITMAP
0780
0CC0
18C0
0000
0000
6030
6030
6030
E030
C030
C070
C060
C060
C060
C0E0
E1E0
FFE0
7CC0
ENDCHAR
STARTCHAR 00FC
ENCODING 252
SWIDTH 600 0
DWIDTH 15 0
BBX 12 18 3 0
BITMAP
1CE0
1CE0
0000
0000
0000
6030
6030
6030
E030
C030
C070
C060
C060
C060
C0E0
E1E0
FFE0
7CC0
ENDCHAR
STARTCHAR 00FD
ENCODING 253
SWIDTH 480 0
DWIDTH 12 0
BBX 14 24 0 -5
BITMAP
0038
0030
0060
00C0
0000
0000
180C
181C
1818
1830
1C30
0C60
0C60
0CC0
0CC0
0780
0700
0700
0600
0600
0C00
1800
F800
F000
ENDCHAR
STARTCHAR 00FE
ENCODING 254
SWIDTH 600 0
DWIDTH 15 0
BBX 15 25 1 -6
BITMAP
0C00
0C00
0C00
1C00
1800
1820
19F8
1B3C
1C0C
380C
380E
300C
300C
300C
301C
7018
6838
6FF0
67C0
6000
6000
E000
C000
C000
C000
ENDCHAR
STARTCHAR 00FF
ENCODING 255
SWIDTH 480 0
DWIDTH 12 0
BBX 14 23 0 -5
BITMAP
0738
0738
0000
0000
0000
180C
181C
1818
1830
1C30
0C60
0C60
0CC0
0CC0
0780
0700
0700
0600
0600
0C00
1800
F800
F000
ENDCHAR
STARTCHAR 0100
ENCODING 256
SWIDTH 680 0
DWIDTH 17 0
BBX 15 21 1 0
BITMAP
01FE
0000
0000
0070
0070
00F0
00F0
01B0
0198
0318
0318
0618
0618
0C1C
1FFC
1FFC
380C
300C
600E
6006
C006
ENDCHAR
STARTCHAR 0101
ENCODING 257
SWIDTH 600 0
DWIDTH 15 0
BBX 13 17 2 0
BITMAP
0FF0
0000
0000
0300
0FD8
3CD8
3038
6038
6038
C038
C030
C030
C030
E070
E0B0
7FF0
3E60
ENDCHAR
STARTCHAR 0102
ENCODING 258
SWIDTH 680 0
DWIDTH 17 0
BBX 15 22 1 0
BITMAP
0186
00FC
0000
0000
0070
0070
00F0
00F0
01B0
0198
0318
0318
0618
0618
0C1C
1FFC
1FFC
380C
300C
600E
6006
C006
ENDCHAR
STARTCHAR 0103
ENCODING 259
SWIDTH 600 0
DWIDTH 15 0
BBX 13 18 2 0
BITMAP
0C10
07F0
03C0
0000
0300
0FD8
3CD8
3038
6038
6038
C038
C030
C030
C030
E070
E0B0
7FF0
3E60
ENDCHAR
STARTCHAR 0104
ENCODING 260
SWIDTH 680 0
DWIDTH 17 0
BBX 15 22 1 -4
BITMAP
0070
0070
00F0
00F0
01B0
0198
0318
0318
0618
0618
0C1C
1FFC
1FFC
380C
300C
600E
6006
C006
000C
0008
0018
000E
ENDCHAR
STARTCHAR 0105
ENCODING 261
SWIDTH 600 0
DWIDTH 15 0
BBX 13 18 2 -4
BITMAP
0300
0FD8
3CD8
3038
6038
6038
C038
C030
C030
C030
E070
E0B0
7FF0
3E60
0060
00C0
00C0
0070
ENDCHAR
STARTCHAR 0106
ENCODING 262
SWIDTH 680 0
DWIDTH 17 0
BBX 16 24 3 0
BITMAP
001C
0018
0030
0060
0040
0000
01F0
07FC
1E1C
380E
3006
6007
6000
C000
C000
C000
C000
C000
C00C
C00C
E018
7078
3FE0
1FC0
ENDCHAR
STARTCHAR 0107
ENCODING 263
SWIDTH 560 0
DWIDTH 14 0
BBX 12 19 2 0
BITMAP
0070
0060
00C0
0180
0000
0100
0FE0
1CF0
3030
6030
6030
C000
C000
C000
C030
C060
60E0
7FC0
3F00
ENDCHAR
STARTCHAR 010A
ENCODING 266
SWIDTH 680 0
DWIDTH 17 0
BBX 16 23 3 0
BITMAP
0040
00E0
00E0
0000
0000
01F0
07FC
1E1C
380E
3006
6007
6000
C000
C000
C000
C000
C000
C00C
C00C
E018
7078
3FE0
1FC0
ENDCHAR
STARTCHAR 010B
ENCODING 267
SWIDTH 560 0
DWIDTH 14 0
BBX 12 18 2 0
BITMAP
0180
0180
0000
0000
0100
0FE0
1CF0
3030
6030
6030
C000
C000
C000
C030
C060
60E0
7FC0
3F00
ENDCHAR
STARTCHAR 010C
ENCODING 268
SWIDTH 680 0
DWIDTH 17 0
BBX 16 23 3 0
BITMAP
030C
01B8
01F0
00E0
0000
01F0
07FC
1E1C
380E
3006
6007
6000
C000
C000
C000
C000
C000
C00C
C00C
E018
7078
3FE0
1FC0
ENDCHAR
STARTCHAR 010D
ENCODING 269
SWIDTH 560 0
DWIDTH 14 0
BBX 12 18 2 0
BITMAP
0670
03C0
0380
0000
0100
0FE0
1CF0
3030
6030
6030
C000
C000
C000
C030
C060
60E0
7FC0
3F00
ENDCHAR
STARTCHAR 010E
ENCODING 270
SWIDTH 680 0
DWIDTH 17 0
BBX 16 23 2 0
BITMAP
030C
0198
00F0
00E0
0000
1FC0
1FF8
387C
300E
3006
3007
3007
3007
7007
6007
6006
6006
600E
601C
E038
C070
FFE0
FF80
ENDCHAR
STARTCHAR 010F
ENCODING 271
SWIDTH 720 0
DWIDTH 18 0
BBX 19 20 2 0
BITMAP
000040
000EE0
000CE0
000C60
000C40
000C40
031D80
0FDC00
3CF800
303800
603800
603800
C03800
C03000
C03000
C03000
E07000
E0B000
7F7000
3E6000
ENDCHAR
STARTCHAR 0110
ENCODING 272
SWIDTH 680 0
DWIDTH 17 0
BBX 15 18 3 0
BITMAP
1F80
3FF8
30FC
300E
300E
3006
7006
6006
FE06
FC06
6006
600E
E00C
C01C
C038
C0F0
FFE0
FF80
ENDCHAR
STARTCHAR 0111
ENCODING 273
SWIDTH 640 0
DWIDTH 16 0
BBX 16 19 2 0
BITMAP
000E
000C
00FF
00FF
000C
031C
0FDC
3CF8
3038
6038
6038
C038
C030
C030
C030
E070
E0B0
7F70
3E60
ENDCHAR
STARTCHAR 0112
ENCODING 274
SWIDTH 560 0
DWIDTH 14 0
BBX 14 21 2 0
BITMAP
07F0
0000
0000
1FFC
1FF8
3800
3800
3000
3000
3000
3000
7FE0
7FE0
6000
6000
6000
6000
E000
C000
FFE0
FFE0
ENDCHAR
STARTCHAR 0113
ENCODING 275
SWIDTH 560 0
DWIDTH 14 0
BBX 12 17 2 0
BITMAP
07F0
0000
0000
0180
0FE0
3870
3030
6030
E030
FFE0
FF80
C000
C000
E060
60E0
7FC0
1F00
ENDCHAR
STARTCHAR 0116
ENCODING 278
SWIDTH 560 0
DWIDTH 14 0
BBX 14 23 2 0
BITMAP
00C0
01C0
00C0
0000
0000
1FFC
1FF8
3800
3800
3000
3000
3000
3000
7FE0
7FE0
6000
6000
6000
6000
E000
C000
FFE0
FFE0
ENDCHAR
STARTCHAR 0117
ENCODING 279
SWIDTH 560 0
DWIDTH 14 0
BBX 12 18 2 0
BITMAP
01C0
01C0
0000
0000
0180
0FE0
3870
3030
6030
E030
FFE0
FF80
C000
C000
E060
60E0
7FC0
1F00
ENDCHAR
STARTCHAR 0118
ENCODING 280
SWIDTH 560 0
DWIDTH 14 0
BBX 14 22 2 -4
BITMAP
1FFC
1FF8
3800
3800
3000
3000
3000
3000
7FE0
7FE0
6000
6000
6000
6000
E000
C000
FFE0
FFE0
00C0
0180
0180
00E0
ENDCHAR
STARTCHAR 0119
ENCODING 281
SWIDTH 560 0
DWIDTH 14 0
BBX 12 18 2 -4
BITMAP
0180
0FE0
3870
3030
6030
E030
FFE0
FF80
C000
C000
E060
60E0
7FC0
1F00
0600
0C00
0C00
0F00
ENDCHAR
STARTCHAR 011A
ENCODING 282
SWIDTH 560 0
DWIDTH 14 0
BBX 14 23 2 0
BITMAP
0618
0330
01E0
01C0
0000
1FFC
1FF8
3800
3800
3000
3000
3000
3000
7FE0
7FE0
6000
6000
6000
6000
E000
C000
FFE0
FFE0
ENDCHAR
STARTCHAR 011B
ENCODING 283
SWIDTH 560 0
DWIDTH 14 0
BBX 12 18 2 0
BITMAP
0630
0360
01C0
0000
0180
0FE0
3870
3030
6030
E030
FFE0
FF80
C000
C000
E060
60E0
7FC0
1F00
ENDCHAR
STARTCHAR 011E
ENCODING 286
SWIDTH 680 0
DWIDTH 17 0
BBX 15 22 3 0
BITMAP
030C
01F8
0000
0000
01F0
07F8
1E1C
380E
3006
6006
6000
C000
C000
C0FE
C0FE
C00C
C00C
C00C
E01C
703C
7FEC
1F88
ENDCHAR
STARTCHAR 011F
ENCODING 287
SWIDTH 600 0
DWIDTH 15 0
BBX 13 23 2 -5
BITMAP
0C30
07E0
03C0
0000
0200
1FD8
3CD8
7038
6038
6038
E038
C030
C030
C070
E070
71B0
7F70
1C60
0060
00E0
00C0
1F80
1F00
ENDCHAR
STARTCHAR 0120
ENCODING 288
SWIDTH 680 0
DWIDTH 17 0
BBX 15 23 3 0
BITMAP
0060
00E0
00E0
0000
0000
01F0
07F8
1E1C
380E
3006
6006
6000
C000
C000
C0FE
C0FE
C00C
C00C
C00C
E01C
703C
7FEC
1F88
ENDCHAR
STARTCHAR 0121
ENCODING 289
SWIDTH 600 0
DWIDTH 15 0
BBX 13 23 2 -5
BITMAP
01C0
0180
0000
0000
0200
1FD8
3CD8
7038
6038
6038
E038
C030
C030
C070
E070
71B0
7F70
1C60
0060
00E0
00C0
1F80
1F00
ENDCHAR
STARTCHAR 0126
ENCODING 294
SWIDTH 680 0
DWIDTH 17 0
BBX 17 18 2 0
BITMAP
180300
180300
180300
7FFF80
7FFF80
300600
300600
300600
3FFE00
7FFE00
700E00
600C00
600C00
600C00
600C00
E00C00
C01C00
C01800
ENDCHAR
STARTCHAR 0127
ENCODING 295
SWIDTH 600 0
DWIDTH 15 0
BBX 13 19 2 0
BITMAP
1800
1800
7F80
7F80
1800
3840
33F0
3778
3818
3018
3018
7018
6018
6018
6038
6030
E030
E030
C030
ENDCHAR
STARTCHAR 0128
ENCODING 296
SWIDTH 240 0
DWIDTH 6 0
BBX 9 23 2 0
BITMAP
1180
7F00
4600
0000
0000
1800
1800
1800
3800
3000
3000
3000
3000
3000
7000
6000
6000
6000
6000
6000
E000
C000
C000
ENDCHAR
STARTCHAR 0129
ENCODING 297
SWIDTH 240 0
DWIDTH 6 0
BBX 8 18 2 0
BITMAP
7B
DE
00
00
00
30
30
30
30
70
70
60
60
60
60
E0
C0
C0
ENDCHAR
STARTCHAR 012A
ENCODING 298
SWIDTH 240 0
DWIDTH 6 0
BBX 8 21 2 0
BITMAP
7F
00
00
18
18
18
38
30
30
30
30
30
70
60
60
60
60
60
E0
C0
C0
ENDCHAR
STARTCHAR 012B
ENCODING 299
SWIDTH 240 0
DWIDTH 6 0
BBX 8 17 2 0
BITMAP
FF
00
00
00
30
30
30
30
70
70
60
60
60
60
E0
C0
C0
ENDCHAR
STARTCHAR 012E
ENCODING 302
SWIDTH 240 0
DWIDTH 6 0
BBX 6 22 1 -4
BITMAP
0C
0C
0C
1C
18
18
18
18
18
38
30
30
30
30
30
70
60
60
40
80
C0
E0
ENDCHAR
STARTCHAR 012F
ENCODING 303
SWIDTH 240 0
DWIDTH 6 0
BBX 6 22 1 -4
BITMAP
0C
0C
00
00
00
18
18
18
18
38
38
30
30
30
30
70
60
60
40
C0
C0
F0
ENDCHAR
STARTCHAR 0130
ENCODING 304
SWIDTH 240 0
DWIDTH 6 0
BBX 6 23 2 0
BITMAP
0C
1C
1C
00
00
18
18
18
38
30
30
30
30
30
70
60
60
60
60
60
E0
C0
C0
ENDCHAR
STARTCHAR 0131
ENCODING 305
SWIDTH 240 0
DWIDTH 6 0
BBX 4 13 2 0
BITMAP
30
30
30
30
70
70
60
60
60
60
E0
C0
C0
ENDCHAR
STARTCHAR 0139
ENCODING 313
SWIDTH 520 0
DWIDTH 13 0
BBX 10 24 2 0
BITMAP
0380
0300
0600
0C00
0800
0000
1800
1800
3800
3800
3000
3000
3000
3000
7000
6000
6000
6000
6000
6000
E000
C000
FFC0
FFC0
ENDCHAR
STARTCHAR 013A
ENCODING 314
SWIDTH 280 0
DWIDTH 7 0
BBX 9 25 2 0
BITMAP
0180
0300
0600
0C00
0800
0000
1800
1800
1800
1800
3800
3000
3000
3000
3000
3000
7000
6000
6000
6000
6000
6000
E000
F800
7800
ENDCHAR
STARTCHAR 013D
ENCODING 317
SWIDTH 520 0
DWIDTH 13 0
BBX 10 23 2 0
BITMAP
6180
3700
3E00
1C00
0000
1800
1800
3800
3800
3000
3000
3000
3000
7000
6000
6000
6000
6000
6000
E000
C000
FFC0
FFC0
ENDCHAR
STARTCHAR 013E
ENCODING 318
SWIDTH 320 0
DWIDTH 8 0
BBX 7 19 2 1
BITMAP
1E
1E
1C
1C
3C
30
30
30
30
30
70
60
60
60
60
60
E0
F8
78
ENDCHAR
STARTCHAR 0143
ENCODING 323
SWIDTH 680 0
DWIDTH 17 0
BBX 17 24 2 0
BITMAP
000E00
000C00
001800
003000
002000
000000
180180
1C0180
3C0380
3E0300
360300
370300
330300
338300
718700
61C600
60C600
60E600
606600
607600
E03E00
C03C00
C01C00
C01C00
ENDCHAR
STARTCHAR 0144
ENCODING 324
SWIDTH 600 0
DWIDTH 15 0
BBX 13 19 2 0
BITMAP
0030
0060
00C0
00C0
0000
0040
33F0
36F8
3838
7018
7018
6018
6018
6038
6030
E030
C030
C030
C030
ENDCHAR
STARTCHAR 0147
ENCODING 327
SWIDTH 680 0
DWIDTH 17 0
BBX 17 23 2 0
BITMAP
018E00
00DC00
00F800
006000
000000
180180
1C0180
3C0380
3E0300
360300
370300
330300
338300
718700
61C600
60C600
60E600
606600
607600
E03E00
C03C00
C01C00
C01C00
ENDCHAR
STARTCHAR 0148
ENCODING 328
SWIDTH 600 0
DWIDTH 15 0
BBX 13 18 2 0
BITMAP
0638
0360
01C0
0000
0040
33F0
36F8
3838
7018
7018
6018
6018
6038
6030
E030
C030
C030
C030
ENDCHAR
STARTCHAR 014C
ENCODING 332
SWIDTH 720 0
DWIDTH 18 0
BBX 16 21 3 0
BITMAP
03F8
0000
0000
01F0
0FFC
1E1C
380E
3006
6007
E007
C007
C007
C007
C006
C006
C00E
C01C
E018
7070
7FE0
1F80
ENDCHAR
STARTCHAR 014D
ENCODING 333
SWIDTH 560 0
DWIDTH 14 0
BBX 13 17 2 0
BITMAP
0FF0
0000
0000
0100
0FE0
1CF0
3030
6030
6038
C038
C030
C030
C030
C060
60E0
7FC0
3F00
ENDCHAR
STARTCHAR 0152
ENCODING 338
SWIDTH 960 0
DWIDTH 24 0
BBX 24 18 2 0
BITMAP
003FFF
03FFFE
0F8E00
1C0C00
380C00
300C00
700C00
601C00
601FF8
601FF8
E01800
E01800
E01800
603800
703000
783000
3FFFF8
0FFFF8
ENDCHAR
STARTCHAR 0153
ENCODING 339
SWIDTH 960 0
DWIDTH 24 0
BBX 23 14 2 0
BITMAP
000020
0FE3F8
1CF71C
38360C
703C06
601806
601FFE
C03FFE
C03800
C03800
E0780C
60FC18
7FCFF0
1F07E0
ENDCHAR
STARTCHAR 0154
ENCODING 340
SWIDTH 600 0
DWIDTH 15 0
BBX 14 24 2 0
BITMAP
0018
0030
0060
00C0
00C0
0000
1F80
1FF8
3878
381C
300C
300C
300C
3018
7038
7FF0
7FC0
6180
6180
60C0
E0C0
C0E0
C060
C070
ENDCHAR
STARTCHAR 0155
ENCODING 341
SWIDTH 320 0
DWIDTH 8 0
BBX 9 19 2 0
BITMAP
0180
0300
0600
0400
0000
0000
3780
3F00
3800
7000
6000
6000
6000
6000
6000
E000
C000
C000
C000
ENDCHAR
STARTCHAR 0158
ENCODING 344
SWIDTH 600 0
DWIDTH 15 0
BBX 14 23 2 0
BITMAP
0618
0330
03E0
01C0
0000
1F80
1FF8
3878
381C
300C
300C
300C
3018
7038
7FF0
7FC0
6180
6180
60C0
E0C0
C0E0
C060
C070
ENDCHAR
STARTCHAR 0159
ENCODING 345
SWIDTH 320 0
DWIDTH 8 0
BBX 9 18 2 0
BITMAP
3180
1B00
0E00
0000
0000
3780
3F00
3800
7000
6000
6000
6000
6000
6000
E000
C000
C000
C000
ENDCHAR
STARTCHAR 015A
ENCODING 346
SWIDTH 560 0
DWIDTH 14 0
BBX 14 24 2 0
BITMAP
001C
0018
0030
0060
0040
0000
03E0
0FF0
1C38
381C
301C
301C
3000
3800
1F80
07E0
0070
0038
C038
E038
E030
7070
7FE0
3F80
ENDCHAR
STARTCHAR 015B
ENCODING 347
SWIDTH 480 0
DWIDTH 12 0
BBX 12 20 2 0
BITMAP
0070
0060
00C0
0180
0300
0000
0200
1FC0
38C0
60E0
6060
6000
3E00
1F80
01C0
00C0
C0C0
E1C0
FF80
3E00
ENDCHAR
STARTCHAR 015E
ENCODING 350
SWIDTH 560 0
DWIDTH 14 0
BBX 14 24 2 -6
BITMAP
03E0
0FF0
1C38
381C
301C
301C
3000
3800
1F80
07E0
0070
0038
C038
E038
E030
7070
7FE0
3F80
0400
0C00
0F00
0100
0300
1E00
ENDCHAR
STARTCHAR 015F
ENCODING 351
SWIDTH 480 0
DWIDTH 12 0
BBX 11 20 2 -6
BITMAP
0200
1FC0
38C0
60E0
6060
6000
3E00
1F80
01C0
00C0
C0C0
E1C0
FF80
3E00
0800
1C00
1E00
0200
0600
3C00
ENDCHAR
STARTCHAR 0160
ENCODING 352
SWIDTH 560 0
DWIDTH 14 0
BBX 14 23 2 0
BITMAP
031C
01B8
01F0
00C0
0000
03E0
0FF0
1C38
381C
301C
301C
3000
3800
1F80
07E0
0070
0038
C038
E038
E030
7070
7FE0
3F80
ENDCHAR
STARTCHAR 0161
ENCODING 353
SWIDTH 480 0
DWIDTH 12 0
BBX 12 19 2 0
BITMAP
1C70
0CC0
0780
0300
0000
0200
1FC0
38C0
60E0
6060
6000
3E00
1F80
01C0
00C0
C0C0
E1C0
FF80
3E00
ENDCHAR
STARTCHAR 0162
ENCODING 354
SWIDTH 560 0
DWIDTH 14 0
BBX 13 24 4 -6
BITMAP
FFF8
FFF0
0600
0600
0600
0E00
0C00
0C00
0C00
0C00
0C00
1C00
1800
1800
1800
1800
1800
3800
3000
3000
7C00
0400
0800
7800
ENDCHAR
STARTCHAR 0163
ENCODING 355
SWIDTH 400 0
DWIDTH 10 0
BBX 8 24 3 -6
BITMAP
18
18
18
18
18
FF
FF
30
30
30
30
70
60
60
60
60
7C
7C
20
70
78
08
08
70
ENDCHAR
STARTCHAR 0164
ENCODING 356
SWIDTH 560 0
DWIDTH 14 0
BBX 13 23 4 0
BITMAP
1860
0CC0
0780
0700
0000
FFF8
FFF0
0600
0600
0600
0E00
0C00
0C00
0C00
0C00
0C00
1C00
1800
1800
1800
1800
1800
3800
ENDCHAR
STARTCHAR 0165
ENCODING 357
SWIDTH 480 0
DWIDTH 12 0
BBX 9 20 3 0
BITMAP
0100
0380
1B80
1880
1880
1900
1A00
FF00
FF00
3000
3000
3000
3000
7000
6000
6000
6000
6000
7C00
7C00
ENDCHAR
STARTCHAR 0166
ENCODING 358
SWIDTH 560 0
DWIDTH 14 0
BBX 13 18 4 0
BITMAP
FFF8
FFF0
0600
0600
0600
0E00
0C00
0C00
FFC0
0C00
0C00
1C00
1800
1800
1800
1800
1800
3800
ENDCHAR
STARTCHAR 0167
ENCODING 359
SWIDTH 360 0
DWIDTH 9 0
BBX 9 18 2 0
BITMAP
0C00
0C00
0C00
0C00
0C00
7F80
7F80
1800
1800
1800
FF00
3800
3000
3000
3000
3000
3E00
3E00
ENDCHAR
STARTCHAR 0168
ENCODING 360
SWIDTH 680 0
DWIDTH 17 0
BBX 15 23 3 0
BITMAP
0188
03F8
0670
0000
0000
3006
7006
6006
6006
6006
600E
600C
E00C
C00C
C00C
C00C
C01C
C018
C038
E030
E070
7FE0
3F80
ENDCHAR
STARTCHAR 0169
ENCODING 361
SWIDTH 600 0
DWIDTH 15 0
BBX 12 18 3 0
BITMAP
0F60
1BC0
0000
0000
0000
6030
6030
6030
E030
C030
C070
C060
C060
C060
C0E0
E1E0
FFE0
7CC0
ENDCHAR
STARTCHAR 016A
ENCODING 362
SWIDTH 680 0
DWIDTH 17 0
BBX 15 21 3 0
BITMAP
07F8
0000
0000
3006
7006
6006
6006
6006
600E
600C
E00C
C00C
C00C
C00C
C01C
C018
C038
E030
E070
7FE0
3F80
ENDCHAR
STARTCHAR 016B
ENCODING 363
SWIDTH 600 0
DWIDTH 15 0
BBX 12 17 3 0
BITMAP
1FE0
0000
0000
0000
6030
6030
6030
E030
C030
C070
C060
C060
C060
C0E0
E1E0
FFE0
7CC0
ENDCHAR
STARTCHAR 016E
ENCODING 366
SWIDTH 680 0
DWIDTH 17 0
BBX 15 24 3 0
BITMAP
00E0
0120
0120
01E0
0000
0000
3006
7006
6006
6006
6006
600E
600C
E00C
C00C
C00C
C00C
C01C
C018
C038
E030
E070
7FE0
3F80
ENDCHAR
STARTCHAR 016F
ENCODING 367
SWIDTH 600 0
DWIDTH 15 0
BBX 12 20 3 0
BITMAP
0100
0680
0480
0580
0300
0000
0000
6030
6030
6030
E030
C030
C070
C060
C060
C060
C0E0
E1E0
FFE0
7CC0
ENDCHAR
STARTCHAR 0172
ENCODING 370
SWIDTH 680 0
DWIDTH 17 0
BBX 15 22 3 -4
BITMAP
3006
7006
6006
6006
6006
600E
600C
E00C
C00C
C00C
C00C
C01C
C018
C038
E030
E070
7FE0
3F80
0C00
0800
1800
0E00
ENDCHAR
STARTCHAR 0173
ENCODING 371
SWIDTH 600 0
DWIDTH 15 0
BBX 12 17 3 -4
BITMAP
6030
6030
6030
E030
C030
C070
C060
C060
C060
C0E0
E1E0
FFE0
7CC0
0180
0100
0100
01C0
ENDCHAR
STARTCHAR 0174
ENCODING 372
SWIDTH 960 0
DWIDTH 24 0
BBX 24 23 3 0
BITMAP
000C00
001E00
003300
006380
000000
E01803
E01C03
603C07
603C06
607C06
606C0C
60EC0C
60CC18
61CE18
618630
638630
630670
370660
360660
3E07C0
3C03C0
3C0380
380380
ENDCHAR
STARTCHAR 0175
ENCODING 373
SWIDTH 800 0
DWIDTH 20 0
BBX 19 18 3 0
BITMAP
00F000
01D800
031C00
000000
000000
C0E060
C0E0C0
C1E0C0
C1E180
636180
636300
666300
663600
6C3600
6C3600
783C00
783C00
703800
ENDCHAR
STARTCHAR 0176
ENCODING 374
SWIDTH 600 0
DWIDTH 15 0
BBX 13 23 4 0
BITMAP
0380
0780
0CC0
1860
0000
C018
E038
6030
6060
60E0
30C0
3180
3380
1B00
1E00
1E00
0C00
1C00
1C00
1800
1800
1800
1800
ENDCHAR
STARTCHAR 0177
ENCODING 375
SWIDTH 480 0
DWIDTH 12 0
BBX 14 23 0 -5
BITMAP
01E0
0330
0630
0000
0000
180C
181C
1818
1830
1C30
0C60
0C60
0CC0
0CC0
0780
0700
0700
0600
0600
0C00
1800
F800
F000
ENDCHAR
STARTCHAR 0178
ENCODING 376
SWIDTH 600 0
DWIDTH 15 0
BBX 13 23 4 0
BITMAP
0C60
1CE0
0CE0
0000
0000
C018
E038
6030
6060
60E0
30C0
3180
3380
1B00
1E00
1E00
0C00
1C00
1C00
1800
1800
1800
1800
ENDCHAR
STARTCHAR 0179
ENCODING 377
SWIDTH 600 0
DWIDTH 15 0
BBX 16 24 1 0
BITMAP
000C
001C
0018
0030
0060
0000
1FFF
1FFF
1FFE
000C
001C
0038
0070
00E0
01C0
0380
0300
0600
0C00
1800
3800
7000
7FF8
FFF8
ENDCHAR
STARTCHAR 017A
ENCODING 378
SWIDTH 480 0
DWIDTH 12 0
BBX 13 19 1 0
BITMAP
0030
0060
00C0
0080
0000
0000
1FF8
1FF0
0060
00C0
0180
0380
0700
0E00
1C00
3800
7000
7FE0
FFC0
ENDCHAR
STARTCHAR 017B
ENCODING 379
SWIDTH 600 0
DWIDTH 15 0
BBX 16 23 1 0
BITMAP
0020
0070
0060
0000
0000
1FFF
1FFF
1FFE
000C
001C
0038
0070
00E0
01C0
0380
0300
0600
0C00
1800
3800
7000
7FF8
FFF8
ENDCHAR
STARTCHAR 017C
ENCODING 380
SWIDTH 480 0
DWIDTH 12 0
BBX 13 18 1 0
BITMAP
01C0
0180
0000
0000
0000
1FF8
1FF0
0060
00C0
0180
0380
0700
0E00
1C00
3800
7000
7FE0
FFC0
ENDCHAR
STARTCHAR 017D
ENCODING 381
SWIDTH 600 0
DWIDTH 15 0
BBX 16 23 1 0
BITMAP
018C
0198
00F0
0060
0000
1FFF
1FFF
1FFE
000C
001C
0038
0070
00E0
01C0
0380
0300
0600
0C00
1800
3800
7000
7FF8
FFF8
ENDCHAR
STARTCHAR 017E
ENCODING 382
SWIDTH 480 0
DWIDTH 12 0
BBX 13 18 1 0
BITMAP
0630
03E0
03C0
0000
0000
1FF8
1FF0
0060
00C0
0180
0380
0700
0E00
1C00
3800
7000
7FE0
FFC0
ENDCHAR
STARTCHAR 01A0
ENCODING 416
SWIDTH 720 0
DWIDTH 18 0
BBX 16 20 3 0
BITMAP
0003
0003
01FE
0FFC
1E1C
380E
3006
6007
E007
C007
C007
C007
C006
C006
C00E
C01C
E018
7070
7FE0
1F80
ENDCHAR
STARTCHAR 01A1
ENCODING 417
SWIDTH 560 0
DWIDTH 14 0
BBX 14 15 2 0
BITMAP
000C
010C
0FF8
1CF0
3030
6030
6038
C038
C030
C030
C030
C060
60E0
7FC0
3F00
ENDCHAR
STARTCHAR 01AF
ENCODING 431
SWIDTH 680 0
DWIDTH 17 0
BBX 18 20 3 0
BITMAP
000040
000040
3007C0
700700
600600
600600
600600
600E00
600C00
E00C00
C00C00
C00C00
C00C00
C01C00
C01800
C03800
E03000
E07000
7FE000
3F8000
ENDCHAR
STARTCHAR 01B0
ENCODING 432
SWIDTH 600 0
DWIDTH 15 0
BBX 15 15 3 0
BITMAP
0002
0006
603C
6030
6030
E030
C030
C070
C060
C060
C060
C0E0
E1E0
FFE0
7CC0
ENDCHAR
STARTCHAR 02C6
ENCODING 710
SWIDTH 400 0
DWIDTH 10 0
BBX 7 3 4 15
BITMAP
3C
6E
C6
ENDCHAR
STARTCHAR 02C7
ENCODING 711
SWIDTH 360 0
DWIDTH 9 0
BBX 8 3 4 15
BITMAP
E7
6C
38
ENDCHAR
STARTCHAR 02D8
ENCODING 728
SWIDTH 360 0
DWIDTH 9 0
BBX 8 3 4 15
BITMAP
C3
FE
38
ENDCHAR
STARTCHAR 02D9
ENCODING 729
SWIDTH 160 0
DWIDTH 4 0
BBX 2 2 4 16
BITMAP
C0
C0
ENDCHAR
STARTCHAR 02DA
ENCODING 730
SWIDTH 200 0
DWIDTH 5 0
BBX 4 5 4 15
BITMAP
20
D0
90
B0
60
ENDCHAR
STARTCHAR 02DB
ENCODING 731
SWIDTH 200 0
DWIDTH 5 0
BBX 4 5 0 -5
BITMAP
20
40
C0
F0
30
ENDCHAR
STARTCHAR 02DC
ENCODING 732
SWIDTH 360 0
DWIDTH 9 0
BBX 8 2 4 16
BITMAP
F3
9E
ENDCHAR
STARTCHAR 0300
ENCODING 768
SWIDTH 0 0
DWIDTH 0 0
BBX 3 4 -2 16
BITMAP
C0
E0
60
60
ENDCHAR
STARTCHAR 0301
ENCODING 769
SWIDTH 0 0
DWIDTH 0 0
BBX 5 4 -2 16
BITMAP
18
30
60
C0
ENDCHAR
STARTCHAR 0302
ENCODING 770
SWIDTH 0 0
DWIDTH 0 0
BBX 8 3 -6 15
BITMAP
3C
76
E7
ENDCHAR
STARTCHAR 0303
ENCODING 771
SWIDTH 0 0
DWIDTH 0 0
BBX 8 2 -5 16
BITMAP
F3
9E
ENDCHAR
STARTCHAR 0304
ENCODING 772
SWIDTH 0 0
DWIDTH 0 0
BBX 7 1 -6 16
BITMAP
FE
ENDCHAR
STARTCHAR 0306
ENCODING 774
SWIDTH 0 0
DWIDTH 0 0
BBX 8 3 -6 15
BITMAP
C3
7E
38
ENDCHAR
STARTCHAR 0307
ENCODING 775
SWIDTH 0 0
DWIDTH 0 0
BBX 3 2 -2 16
BITMAP
60
E0
ENDCHAR
STARTCHAR 0308
ENCODING 776
SWIDTH 0 0
DWIDTH 0 0
BBX 7 2 -6 16
BITMAP
C6
CE
ENDCHAR
STARTCHAR 0309
ENCODING 777
SWIDTH 0 0
DWIDTH 0 0
BBX 5 4 -3 16
BITMAP
78
C8
08
30
ENDCHAR
STARTCHAR 030A
ENCODING 778
SWIDTH 0 0
DWIDTH 0 0
BBX 5 5 -3 15
BITMAP
30
58
88
D0
60
ENDCHAR
STARTCHAR 030C
ENCODING 780
SWIDTH 0 0
DWIDTH 0 0
BBX 8 3 -6 15
BITMAP
E7
6C
38
ENDCHAR
STARTCHAR 031B
ENCODING 795
SWIDTH 0 0
DWIDTH 0 0
BBX 5 3 -3 14
BITMAP
18
18
F0
ENDCHAR
STARTCHAR 0323
ENCODING 803
SWIDTH 0 0
DWIDTH 0 0
BBX 3 3 -4 -6
BITMAP
E0
E0
40
ENDCHAR
STARTCHAR 0327
ENCODING 807
SWIDTH 0 0
DWIDTH 0 0
BBX 5 6 -6 -6
BITMAP
40
60
F8
18
10
E0
ENDCHAR
STARTCHAR 0328
ENCODING 808
SWIDTH 0 0
DWIDTH 0 0
BBX 4 5 -5 -5
BITMAP
60
C0
80
F0
20
ENDCHAR
STARTCHAR 1E80
ENCODING 7808
SWIDTH 960 0
DWIDTH 24 0
BBX 24 24 3 0
BITMAP
003000
003000
001800
001800
000800
000000
E01803
E01C03
603C07
603C06
607C06
606C0C
60EC0C
60CC18
61CE18
618630
638630
630670
370660
360660
3E07C0
3C03C0
3C0380
380380
ENDCHAR
STARTCHAR 1E81
ENCODING 7809
SWIDTH 800 0
DWIDTH 20 0
BBX 19 19 3 0
BITMAP
018000
00C000
00C000
004000
000000
000000
C0E060
C0E0C0
C1E0C0
C1E180
636180
636300
666300
663600
6C3600
6C3600
783C00
783C00
703800
ENDCHAR
STARTCHAR 1E82
ENCODING 7810
SWIDTH 960 0
DWIDTH 24 0
BBX 24 24 3 0
BITMAP
000180
000300
000700
000600
000C00
000000
E01803
E01C03
603C07
603C06
607C06
606C0C
60EC0C
60CC18
61CE18
618630
638630
630670
370660
360660
3E07C0
3C03C0
3C0380
380380
ENDCHAR
STARTCHAR 1E83
ENCODING 7811
SWIDTH 800 0
DWIDTH 20 0
BBX 19 19 3 0
BITMAP
000C00
001800
003000
006000
000000
000000
C0E060
C0E0C0
C1E0C0
C1E180
636180
636300
666300
663600
6C3600
6C3600
783C00
783C00
703800
ENDCHAR
STARTCHAR 1E84
ENCODING 7812
SWIDTH 960 0
DWIDTH 24 0
BBX 24 23 3 0
BITMAP
003180
007380
007300
000000
000000
E01803
E01C03
603C07
603C06
607C06
606C0C
60EC0C
60CC18
61CE18
618630
638630
630670
370660
360660
3E07C0
3C03C0
3C0380
380380
ENDCHAR
STARTCHAR 1E85
ENCODING 7813
SWIDTH 800 0
DWIDTH 20 0
BBX 19 18 3 0
BITMAP
019C00
039C00
000000
000000
000000
C0E060
C0E0C0
C1E0C0
C1E180
636180
636300
666300
663600
6C3600
6C3600
783C00
783C00
703800
ENDCHAR
STARTCHAR 1EA0
ENCODING 7840
SWIDTH 680 0
DWIDTH 17 0
BBX 15 24 1 -6
BITMAP
0070
0070
00F0
00F0
01B0
0198
0318
0318
0618
0618
0C1C
1FFC
1FFC
380C
300C
600E
6006
C006
0000
0000
0000
0300
0700
0200
ENDCHAR
STARTCHAR 1EA1
ENCODING 7841
SWIDTH 600 0
DWIDTH 15 0
BBX 13 20 2 -6
BITMAP
0300
0FD8
3CD8
3038
6038
6038
C038
C030
C030
C030
E070
E0B0
7FF0
3E60
0000
0000
0000
0C00
1C00
0800
ENDCHAR
STARTCHAR 1EA2
ENCODING 7842
SWIDTH 680 0
DWIDTH 17 0
BBX 15 24 1 0
BITMAP
0038
006C
000C
0018
0030
0000
0070
0070
00F0
00F0
01B0
0198
0318
0318
0618
0618
0C1C
1FFC
1FFC
380C
300C
600E
6006
C006
ENDCHAR
STARTCHAR 1EA3
ENCODING 7843
SWIDTH 600 0
DWIDTH 15 0
BBX 13 20 2 0
BITMAP
0080
03E0
0220
0060
00C0
0000
0300
0FD8
3CD8
3038
6038
6038
C038
C030
C030
C030
E070
E0B0
7FF0
3E60
ENDCHAR
STARTCHAR 1EA4
ENCODING 7844
SWIDTH 680 0
DWIDTH 17 0
BBX 19 27 1 0
BITMAP
000060
0000E0
0000C0
000180
003B00
007800
00CC00
018600
000000
007000
007000
00F000
00F000
01B000
019800
031800
031800
061800
061800
0C1C00
1FFC00
1FFC00
380C00
300C00
600E00
600600
C00600
ENDCHAR
STARTCHAR 1EA5
ENCODING 7845
SWIDTH 600 0
DWIDTH 15 0
BBX 16 22 2 0
BITMAP
0003
0006
000C
000C
01C0
0360
0E30
0000
0300
0FD8
3CD8
3038
6038
6038
C038
C030
C030
C030
E070
E0B0
7FF0
3E60
ENDCHAR
STARTCHAR 1EA6
ENCODING 7846
SWIDTH 680 0
DWIDTH 17 0
BBX 16 27 1 0
BITMAP
000C
0006
0006
0002
003B
0078
00CC
0186
0000
0070
0070
00F0
00F0
01B0
0198
0318
0318
0618
0618
0C1C
1FFC
1FFC
380C
300C
600E
6006
C006
ENDCHAR
STARTCHAR 1EA7
ENCODING 7847
SWIDTH 600 0
DWIDTH 15 0
BBX 13 22 2 0
BITMAP
0030
0030
0018
0018
01C0
0360
0E30
0000
0300
0FD8
3CD8
3038
6038
6038
C038
C030
C030
C030
E070
E0B0
7FF0
3E60
ENDCHAR
STARTCHAR 1EA8
ENCODING 7848
SWIDTH 680 0
DWIDTH 17 0
BBX 18 27 1 0
BITMAP
0003C0
0006C0
0000C0
000180
003B00
007800
00CC00
018600
000000
007000
007000
00F000
00F000
01B000
019800
031800
031800
061800
061800
0C1C00
1FFC00
1FFC00
380C00
300C00
600E00
600600
C00600
ENDCHAR
STARTCHAR 1EA9
ENCODING 7849
SWIDTH 600 0
DWIDTH 15 0
BBX 15 23 2 0
BITMAP
000C
003E
0002
0006
000C
01C0
0360
0E30
0000
0300
0FD8
3CD8
3038
6038
6038
C038
C030
C030
C030
E070
E0B0
7FF0
3E60
ENDCHAR
STARTCHAR 1EAA
ENCODING 7850
SWIDTH 680 0
DWIDTH 17 0
BBX 16 27 1 0
BITMAP
0003
00FE
019C
0000
0038
0078
00CC
0186
0000
0070
0070
00F0
00F0
01B0
0198
0318
0318
0618
0618
0C1C
1FFC
1FFC
380C
300C
600E
6006
C006
ENDCHAR
STARTCHAR 1EAB
ENCODING 7851
SWIDTH 600 0
DWIDTH 15 0
BBX 13 22 2 0
BITMAP
0798
04F0
0000
0000
01C0
0360
0E30
0000
0300
0FD8
3CD8
3038
6038
6038
C038
C030
C030
C030
E070
E0B0
7FF0
3E60
ENDCHAR
STARTCHAR 1EAC
ENCODING 7852
SWIDTH 680 0
DWIDTH 17 0
BBX 15 29 1 -6
BITMAP
0038
0078
00CC
0186
0000
0070
0070
00F0
00F0
01B0
0198
0318
0318
0618
0618
0C1C
1FFC
1FFC
380C
300C
600E
6006
C006
0000
0000
0000
0300
0700
0200
ENDCHAR
STARTCHAR 1EAD
ENCODING 7853
SWIDTH 600 0
DWIDTH 15 0
BBX 13 24 2 -6
BITMAP
01C0
0360
0E30
0000
0300
0FD8
3CD8
3038
6038
6038
C038
C030
C030
C030
E070
E0B0
7FF0
3E60
0000
0000
0000
0C00
1C00
0800
ENDCHAR
STARTCHAR 1EAE
ENCODING 7854
SWIDTH 680 0
DWIDTH 17 0
BBX 16 27 1 0
BITMAP
0007
000E
000C
0018
0000
0186
00FC
0000
0000
0070
0070
00F0
00F0
01B0
0198
0318
0318
0618
0618
0C1C
1FFC
1FFC
380C
300C
600E
6006
C006
ENDCHAR
STARTCHAR 1EAF
ENCODING 7855
SWIDTH 600 0
DWIDTH 15 0
BBX 13 23 2 0
BITMAP
0018
0030
0060
0040
00C0
0C10
07F0
03C0
0000
0300
0FD8
3CD8
3038
6038
6038
C038
C030
C030
C030
E070
E0B0
7FF0
3E60
ENDCHAR
STARTCHAR 1EB0
ENCODING 7856
SWIDTH 680 0
DWIDTH 17 0
BBX 15 27 1 0
BITMAP
0060
0060
0030
0030
0000
0186
00FC
0000
0000
0070
0070
00F0
00F0
01B0
0198
0318
0318
0618
0618
0C1C
1FFC
1FFC
380C
300C
600E
6006
C006
ENDCHAR
STARTCHAR 1EB1
ENCODING 7857
SWIDTH 600 0
DWIDTH 15 0
BBX 13 23 2 0
BITMAP
0300
0300
0180
0180
0080
0C18
07F0
03C0
0000
0300
0FD8
3CD8
3038
6038
6038
C038
C030
C030
C030
E070
E0B0
7FF0
3E60
ENDCHAR
STARTCHAR 1EB2
ENCODING 7858
SWIDTH 680 0
DWIDTH 17 0
BBX 15 27 1 0
BITMAP
003C
0064
000C
0018
0000
0186
00FC
0000
0000
0070
0070
00F0
00F0
01B0
0198
0318
0318
0618
0618
0C1C
1FFC
1FFC
380C
300C
600E
6006
C006
ENDCHAR
STARTCHAR 1EB3
ENCODING 7859
SWIDTH 600 0
DWIDTH 15 0
BBX 13 23 2 0
BITMAP
01E0
0130
0030
0060
00C0
0C10
07F0
03C0
0000
0300
0FD8
3CD8
3038
6038
6038
C038
C030
C030
C030
E070
E0B0
7FF0
3E60
ENDCHAR
STARTCHAR 1EB4
ENCODING 7860
SWIDTH 680 0
DWIDTH 17 0
BBX 16 26 1 0
BITMAP
0073
00DE
0000
0000
0186
00FC
0000
0000
0070
0070
00F0
00F0
01B0
0198
0318
0318
0618
0618
0C1C
1FFC
1FFC
380C
300C
600E
6006
C006
ENDCHAR
STARTCHAR 1EB5
ENCODING 7861
SWIDTH 600 0
DWIDTH 15 0
BBX 13 22 2 0
BITMAP
0388
07F8
0460
0000
0C10
07F0
03C0
0000
0300
0FD8
3CD8
3038
6038
6038
C038
C030
C030
C030
E070
E0B0
7FF0
3E60
ENDCHAR
STARTCHAR 1EB6
ENCODING 7862
SWIDTH 680 0
DWIDTH 17 0
BBX 15 28 1 -6
BITMAP
0186
00FC
0000
0000
0070
0070
00F0
00F0
01B0
0198
0318
0318
0618
0618
0C1C
1FFC
1FFC
380C
300C
600E
6006
C006
0000
0000
0000
0300
0700
0200
ENDCHAR
STARTCHAR 1EB7
ENCODING 7863
SWIDTH 600 0
DWIDTH 15 0
BBX 13 24 2 -6
BITMAP
0C10
07F0
03C0
0000
0300
0FD8
3CD8
3038
6038
6038
C038
C030
C030
C030
E070
E0B0
7FF0
3E60
0000
0000
0000
0C00
1C00
0800
ENDCHAR
STARTCHAR 1EB8
ENCODING 7864
SWIDTH 560 0
DWIDTH 14 0
BBX 14 24 2 -6
BITMAP
1FFC
1FF8
3800
3800
3000
3000
3000
3000
7FE0
7FE0
6000
6000
6000
6000
E000
C000
FFE0
FFE0
0000
0000
0000
1C00
1C00
0800
ENDCHAR
STARTCHAR 1EB9
ENCODING 7865
SWIDTH 560 0
DWIDTH 14 0
BBX 12 20 2 -6
BITMAP
0180
0FE0
3870
3030
6030
E030
FFE0
FF80
C000
C000
E060
60E0
7FC0
1F00
0000
0000
0000
0E00
0E00
0400
ENDCHAR
STARTCHAR 1EBA
ENCODING 7866
SWIDTH 560 0
DWIDTH 14 0
BBX 14 24 2 0
BITMAP
00E0
01F0
0030
0060
00C0
0000
1FFC
1FF8
3800
3800
3000
3000
3000
3000
7FE0
7FE0
6000
6000
6000
6000
E000
C000
FFE0
FFE0
ENDCHAR
STARTCHAR 1EBB
ENCODING 7867
SWIDTH 560 0
DWIDTH 14 0
BBX 12 20 2 0
BITMAP
0080
03E0
0220
0060
00C0
0000
0180
0FE0
3870
3030
6030
E030
FFE0
FF80
C000
C000
E060
60E0
7FC0
1F00
ENDCHAR
STARTCHAR 1EBC
ENCODING 7868
SWIDTH 560 0
DWIDTH 14 0
BBX 14 23 2 0
BITMAP
0108
07F8
0470
0000
0000
1FFC
1FF8
3800
3800
3000
3000
3000
3000
7FE0
7FE0
6000
6000
6000
6000
E000
C000
FFE0
FFE0
ENDCHAR
STARTCHAR 1EBD
ENCODING 7869
SWIDTH 560 0
DWIDTH 14 0
BBX 12 18 2 0
BITMAP
0790
0CF0
0000
0000
0180
0FE0
3870
3030
6030
E030
FFE0
FF80
C000
C000
E060
60E0
7FC0
1F00
ENDCHAR
STARTCHAR 1EBE
ENCODING 7870
SWIDTH 560 0
DWIDTH 14 0
BBX 17 27 2 0
BITMAP
000180
000300
000700
000600
00CC00
01E000
033000
063000
000000
1FFC00
1FF800
380000
380000
300000
300000
300000
300000
7FE000
7FE000
600000
600000
600000
600000
E00000
C00000
FFE000
FFE000
ENDCHAR
STARTCHAR 1EBF
ENCODING 7871
SWIDTH 560 0
DWIDTH 14 0
BBX 16 22 2 0
BITMAP
0003
0006
0004
000C
01C0
0360
0630
0800
0180
0FE0
3870
3030
6030
E030
FFE0
FF80
C000
C000
E060
60E0
7FC0
1F00
ENDCHAR
STARTCHAR 1EC0
ENCODING 7872
SWIDTH 560 0
DWIDTH 14 0
BBX 14 27 2 0
BITMAP
0030
0030
0018
0018
00CC
01E0
0330
0630
0000
1FFC
1FF8
3800
3800
3000
3000
3000
3000
7FE0
7FE0
6000
6000
6000
6000
E000
C000
FFE0
FFE0
ENDCHAR
STARTCHAR 1EC1
ENCODING 7873
SWIDTH 560 0
DWIDTH 14 0
BBX 13 22 2 0
BITMAP
0030
0030
0018
0018
01C0
0360
0E30
0000
0180
0FE0
3870
3030
6030
E030
FFE0
FF80
C000
C000
E060
60E0
7FC0
1F00
ENDCHAR
STARTCHAR 1EC2
ENCODING 7874
SWIDTH 560 0
DWIDTH 14 0
BBX 16 27 2 0
BITMAP
000E
001B
0003
0006
00CC
01E0
0330
0630
0000
1FFC
1FF8
3800
3800
3000
3000
3000
3000
7FE0
7FE0
6000
6000
6000
6000
E000
C000
FFE0
FFE0
ENDCHAR
STARTCHAR 1EC3
ENCODING 7875
SWIDTH 560 0
DWIDTH 14 0
BBX 15 23 2 0
BITMAP
000C
003E
0002
0006
000C
01C0
0360
0630
0800
0180
0FE0
3870
3030
6030
E030
FFE0
FF80
C000
C000
E060
60E0
7FC0
1F00
ENDCHAR
STARTCHAR 1EC4
ENCODING 7876
SWIDTH 560 0
DWIDTH 14 0
BBX 14 27 2 0
BITMAP
0008
03F8
0670
0000
00C0
01E0
0330
0630
0000
1FFC
1FF8
3800
3800
3000
3000
3000
3000
7FE0
7FE0
6000
6000
6000
6000
E000
C000
FFE0
FFE0
ENDCHAR
STARTCHAR 1EC5
ENCODING 7877
SWIDTH 560 0
DWIDTH 14 0
BBX 13 22 2 0
BITMAP
0798
06F0
0000
0000
01C0
0360
0630
0800
0180
0FE0
3870
3030
6030
E030
FFE0
FF80
C000
C000
E060
60E0
7FC0
1F00
ENDCHAR
STARTCHAR 1EC6
ENCODING 7878
SWIDTH 560 0
DWIDTH 14 0
BBX 14 29 2 -6
BITMAP
00C0
01E0
0330
0630
0000
1FFC
1FF8
3800
3800
3000
3000
3000
3000
7FE0
7FE0
6000
6000
6000
6000
E000
C000
FFE0
FFE0
0000
0000
0000
1C00
1C00
0800
ENDCHAR
STARTCHAR 1EC7
ENCODING 7879
SWIDTH 560 0
DWIDTH 14 0
BBX 12 24 2 -6
BITMAP
01C0
0360
0630
0800
0180
0FE0
3870
3030
6030
E030
FFE0
FF80
C000
C000
E060
60E0
7FC0
1F00
0000
0000
0000
0E00
0E00
0400
ENDCHAR
STARTCHAR 1EC8
ENCODING 7880
SWIDTH 240 0
DWIDTH 6 0
BBX 7 24 2 0
BITMAP
0E
3E
02
06
08
00
18
18
18
38
30
30
30
30
30
70
60
60
60
60
60
E0
C0
C0
ENDCHAR
STARTCHAR 1EC9
ENCODING 7881
SWIDTH 240 0
DWIDTH 6 0
BBX 7 20 2 0
BITMAP
08
3E
66
04
18
00
00
30
30
30
30
70
70
60
60
60
60
E0
C0
C0
ENDCHAR
STARTCHAR 1ECA
ENCODING 7882
SWIDTH 240 0
DWIDTH 6 0
BBX 6 24 1 -6
BITMAP
0C
0C
0C
1C
18
18
18
18
18
38
30
30
30
30
30
70
60
60
00
00
00
E0
E0
40
ENDCHAR
STARTCHAR 1ECB
ENCODING 7883
SWIDTH 240 0
DWIDTH 6 0
BBX 6 24 1 -6
BITMAP
0C
0C
00
00
00
18
18
18
18
38
38
30
30
30
30
70
60
60
00
00
00
E0
E0
40
ENDCHAR
STARTCHAR 1ECC
ENCODING 7884
SWIDTH 720 0
DWIDTH 18 0
BBX 16 24 3 -6
BITMAP
01F0
0FFC
1E1C
380E
3006
6007
E007
C007
C007
C007
C006
C006
C00E
C01C
E018
7070
7FE0
1F80
0000
0000
0000
0E00
0E00
0400
ENDCHAR
STARTCHAR 1ECD
ENCODING 7885
SWIDTH 560 0
DWIDTH 14 0
BBX 13 20 2 -6
BITMAP
0100
0FE0
1CF0
3030
6030
6038
C038
C030
C030
C030
C060
60E0
7FC0
3F00
0000
0000
0000
1C00
1C00
0800
ENDCHAR
STARTCHAR 1ECE
ENCODING 7886
SWIDTH 720 0
DWIDTH 18 0
BBX 16 24 3 0
BITMAP
0070
00F8
0018
0030
0060
0000
01F0
0FFC
1E1C
380E
3006
6007
E007
C007
C007
C007
C006
C006
C00E
C01C
E018
7070
7FE0
1F80
ENDCHAR
STARTCHAR 1ECF
ENCODING 7887
SWIDTH 560 0
DWIDTH 14 0
BBX 13 20 2 0
BITMAP
0080
03E0
0660
0040
0180
0000
0100
0FE0
1CF0
3030
6030
6038
C038
C030
C030
C030
C060
60E0
7FC0
3F00
ENDCHAR
STARTCHAR 1ED0
ENCODING 7888
SWIDTH 720 0
DWIDTH 18 0
BBX 18 27 3 0
BITMAP
0000C0
000180
000300
000300
006600
00F000
019800
031800
000000
01F000
0FFC00
1E1C00
380E00
300600
600700
E00700
C00700
C00700
C00700
C00600
C00600
C00E00
C01C00
E01800
707000
7FE000
1F8000
ENDCHAR
STARTCHAR 1ED1
ENCODING 7889
SWIDTH 560 0
DWIDTH 14 0
BBX 16 22 2 0
BITMAP
0003
0006
000C
0018
03C0
06E0
0C60
0000
0100
0FE0
1CF0
3030
6030
6038
C038
C030
C030
C030
C060
60E0
7FC0
3F00
ENDCHAR
STARTCHAR 1ED2
ENCODING 7890
SWIDTH 720 0
DWIDTH 18 0
BBX 16 27 3 0
BITMAP
0018
0018
000C
000C
0066
00F0
0198
0318
0000
01F0
0FFC
1E1C
380E
3006
6007
E007
C007
C007
C007
C006
C006
C00E
C01C
E018
7070
7FE0
1F80
ENDCHAR
STARTCHAR 1ED3
ENCODING 7891
SWIDTH 560 0
DWIDTH 14 0
BBX 13 22 2 0
BITMAP
0070
0030
0030
0018
03C0
06E0
0C60
0000
0100
0FE0
1CF0
3030
6030
6038
C038
C030
C030
C030
C060
60E0
7FC0
3F00
ENDCHAR
STARTCHAR 1ED4
ENCODING 7892
SWIDTH 720 0
DWIDTH 18 0
BBX 17 27 3 0
BITMAP
000700
000D80
000180
000300
006600
00F000
019800
031800
000000
01F000
0FFC00
1E1C00
380E00
300600
600700
E00700
C00700
C00700
C00700
C00600
C00600
C00E00
C01C00
E01800
707000
7FE000
1F8000
ENDCHAR
STARTCHAR 1ED5
ENCODING 7893
SWIDTH 560 0
DWIDTH 14 0
BBX 15 23 2 0
BITMAP
0018
003E
0006
0004
0018
03C0
06E0
0C60
0000
0100
0FE0
1CF0
3030
6030
6038
C038
C030
C030
C030
C060
60E0
7FC0
3F00
ENDCHAR
STARTCHAR 1ED6
ENCODING 7894
SWIDTH 720 0
DWIDTH 18 0
BBX 16 27 3 0
BITMAP
0004
01FC
0338
0000
0060
00F0
0198
0318
0000
01F0
0FFC
1E1C
380E
3006
6007
E007
C007
C007
C007
C006
C006
C00E
C01C
E018
7070
7FE0
1F80
ENDCHAR
STARTCHAR 1ED7
ENCODING 7895
SWIDTH 560 0
DWIDTH 14 0
BBX 13 22 2 0
BITMAP
0790
0DF0
0000
0000
03C0
06E0
0C60
0000
0100
0FE0
1CF0
3030
6030
6038
C038
C030
C030
C030
C060
60E0
7FC0
3F00
ENDCHAR
STARTCHAR 1ED8
ENCODING 7896
SWIDTH 720 0
DWIDTH 18 0
BBX 16 29 3 -6
BITMAP
0060
00F0
0198
0318
0000
01F0
0FFC
1E1C
380E
3006
6007
E007
C007
C007
C007
C006
C006
C00E
C01C
E018
7070
7FE0
1F80
0000
0000
0000
0E00
0E00
0400
ENDCHAR
STARTCHAR 1ED9
ENCODING 7897
SWIDTH 560 0
DWIDTH 14 0
BBX 13 24 2 -6
BITMAP
03C0
06E0
0C60
0000
0100
0FE0
1CF0
3030
6030
6038
C038
C030
C030
C030
C060
60E0
7FC0
3F00
0000
0000
0000
1C00
1C00
0800
ENDCHAR
STARTCHAR 1EDA
ENCODING 7898
SWIDTH 720 0
DWIDTH 18 0
BBX 16 24 3 0
BITMAP
000C
0018
0030
0020
0063
0003
01FE
0FFC
1E1C
380E
3006
6007
E007
C007
C007
C007
C006
C006
C00E
C01C
E018
7070
7FE0
1F80
ENDCHAR
STARTCHAR 1EDB
ENCODING 7899
SWIDTH 560 0
DWIDTH 14 0
BBX 14 19 2 0
BITMAP
0070
0060
00C0
0180
000C
010C
0FF8
1CF0
3030
6030
6038
C038
C030
C030
C030
C060
60E0
7FC0
3F00
ENDCHAR
STARTCHAR 1EDC
ENCODING 7900
SWIDTH 720 0
DWIDTH 18 0
BBX 16 24 3 0
BITMAP
0380
0180
0180
00C0
00C3
0003
01FE
0FFC
1E1C
380E
3006
6007
E007
C007
C007
C007
C006
C006
C00E
C01C
E018
7070
7FE0
1F80
ENDCHAR
STARTCHAR 1EDD
ENCODING 7901
SWIDTH 560 0
DWIDTH 14 0
BBX 14 19 2 0
BITMAP
0600
0700
0300
0300
000C
010C
0FF8
1CF0
3030
6030
6038
C038
C030
C030
C030
C060
60E0
7FC0
3F00
ENDCHAR
STARTCHAR 1EDE
ENCODING 7902
SWIDTH 720 0
DWIDTH 18 0
BBX 16 24 3 0
BITMAP
0070
00F8
0018
0030
0063
0003
01FE
0FFC
1E1C
380E
3006
6007
E007
C007
C007
C007
C006
C006
C00E
C01C
E018
7070
7FE0
1F80
ENDCHAR
STARTCHAR 1EDF
ENCODING 7903
SWIDTH 560 0
DWIDTH 14 0
BBX 14 20 2 0
BITMAP
0080
03E0
0660
0040
0180
000C
010C
0FF8
1CF0
3030
6030
6038
C038
C030
C030
C030
C060
60E0
7FC0
3F00
ENDCHAR
STARTCHAR 1EE0
ENCODING 7904
SWIDTH 720 0
DWIDTH 18 0
BBX 16 23 3 0
BITMAP
0084
03FC
0238
0003
0003
01FE
0FFC
1E1C
380E
3006
6007
E007
C007
C007
C007
C006
C006
C00E
C01C
E018
7070
7FE0
1F80
ENDCHAR
STARTCHAR 1EE1
ENCODING 7905
SWIDTH 560 0
DWIDTH 14 0
BBX 14 18 2 0
BITMAP
07B0
0DE0
0000
000C
010C
0FF8
1CF0
3030
6030
6038
C038
C030
C030
C030
C060
60E0
7FC0
3F00
ENDCHAR
STARTCHAR 1EE2
ENCODING 7906
SWIDTH 720 0
DWIDTH 18 0
BBX 16 26 3 -6
BITMAP
0003
0003
01FE
0FFC
1E1C
380E
3006
6007
E007
C007
C007
C007
C006
C006
C00E
C01C
E018
7070
7FE0
1F80
0000
0000
0000
0E00
0E00
0400
ENDCHAR
STARTCHAR 1EE3
ENCODING 7907
SWIDTH 560 0
DWIDTH 14 0
BBX 14 21 2 -6
BITMAP
000C
010C
0FF8
1CF0
3030
6030
6038
C038
C030
C030
C030
C060
60E0
7FC0
3F00
0000
0000
0000
1C00
1C00
0800
ENDCHAR
STARTCHAR 1EE4
ENCODING 7908
SWIDTH 680 0
DWIDTH 17 0
BBX 15 24 3 -6
BITMAP
3006
7006
6006
6006
6006
600E
600C
E00C
C00C
C00C
C00C
C01C
C018
C038
E030
E070
7FE0
3F80
0000
0000
0000
0C00
1C00
0800
ENDCHAR
STARTCHAR 1EE5
ENCODING 7909
SWIDTH 600 0
DWIDTH 15 0
BBX 12 19 3 -6
BITMAP
6030
6030
6030
E030
C030
C070
C060
C060
C060
C0E0
E1E0
FFE0
7CC0
0000
0000
0000
3800
3800
1000
ENDCHAR
STARTCHAR 1EE6
ENCODING 7910
SWIDTH 680 0
DWIDTH 17 0
BBX 15 24 3 0
BITMAP
00E0
01B0
0030
0060
00C0
0000
3006
7006
6006
6006
6006
600E
600C
E00C
C00C
C00C
C00C
C01C
C018
C038
E030
E070
7FE0
3F80
ENDCHAR
STARTCHAR 1EE7
ENCODING 7911
SWIDTH 600 0
DWIDTH 15 0
BBX 12 20 3 0
BITMAP
0100
07C0
0CC0
0080
0300
0000
0000
6030
6030
6030
E030
C030
C070
C060
C060
C060
C0E0
E1E0
FFE0
7CC0
ENDCHAR
STARTCHAR 1EE8
ENCODING 7912
SWIDTH 680 0
DWIDTH 17 0
BBX 18 24 3 0
BITMAP
001800
003800
003000
006000
00C040
000040
3007C0
700700
600600
600600
600600
600E00
600C00
E00C00
C00C00
C00C00
C00C00
C01C00
C01800
C03800
E03000
E07000
7FE000
3F8000
ENDCHAR
STARTCHAR 1EE9
ENCODING 7913
SWIDTH 600 0
DWIDTH 15 0
BBX 15 19 3 0
BITMAP
00E0
00C0
0180
0300
0002
0006
603C
6030
6030
E030
C030
C070
C060
C060
C060
C0E0
E1E0
FFE0
7CC0
ENDCHAR
STARTCHAR 1EEA
ENCODING 7914
SWIDTH 680 0
DWIDTH 17 0
BBX 18 24 3 0
BITMAP
030000
030000
018000
018000
00C040
000040
3007C0
700700
600600
600600
600600
600E00
600C00
E00C00
C00C00
C00C00
C00C00
C01C00
C01800
C03800
E03000
E07000
7FE000
3F8000
ENDCHAR
STARTCHAR 1EEB
ENCODING 7915
SWIDTH 600 0
DWIDTH 15 0
BBX 15 19 3 0
BITMAP
1800
0C00
0C00
0600
0002
0006
603C
6030
6030
E030
C030
C070
C060
C060
C060
C0E0
E1E0
FFE0
7CC0
ENDCHAR
STARTCHAR 1EEC
ENCODING 7916
SWIDTH 680 0
DWIDTH 17 0
BBX 18 24 3 0
BITMAP
00E000
01B000
003000
006000
00C040
000040
3007C0
700700
600600
600600
600600
600E00
600C00
E00C00
C00C00
C00C00
C00C00
C01C00
C01800
C03800
E03000
E07000
7FE000
3F8000
ENDCHAR
STARTCHAR 1EED
ENCODING 7917
SWIDTH 600 0
DWIDTH 15 0
BBX 15 20 3 0
BITMAP
0100
07C0
0CC0
0080
0300
0002
0006
603C
6030
6030
E030
C030
C070
C060
C060
C060
C0E0
E1E0
FFE0
7CC0
ENDCHAR
STARTCHAR 1EEE
ENCODING 7918
SWIDTH 680 0
DWIDTH 17 0
BBX 18 23 3 0
BITMAP
018800
03F800
067000
000040
000040
3007C0
700700
600600
600600
600600
600E00
600C00
E00C00
C00C00
C00C00
C00C00
C01C00
C01800
C03800
E03000
E07000
7FE000
3F8000
ENDCHAR
STARTCHAR 1EEF
ENCODING 7919
SWIDTH 600 0
DWIDTH 15 0
BBX 15 18 3 0
BITMAP
0F60
1BC0
0000
0002
0006
603C
6030
6030
E030
C030
C070
C060
C060
C060
C0E0
E1E0
FFE0
7CC0
ENDCHAR
STARTCHAR 1EF0
ENCODING 7920
SWIDTH 680 0
DWIDTH 17 0
BBX 18 26 3 -6
BITMAP
000040
000040
3007C0
700700
600600
600600
600600
600E00
600C00
E00C00
C00C00
C00C00
C00C00
C01C00
C01800
C03800
E03000
E07000
7FE000
3F8000
000000
000000
000000
0C0000
1C0000
080000
ENDCHAR
STARTCHAR 1EF1
ENCODING 7921
SWIDTH 600 0
DWIDTH 15 0
BBX 15 21 3 -6
BITMAP
0002
0006
603C
6030
6030
E030
C030
C070
C060
C060
C060
C0E0
E1E0
FFE0
7CC0
0000
0000
0000
3000
7000
2000
ENDCHAR
STARTCHAR 1EF2
ENCODING 7922
SWIDTH 600 0
DWIDTH 15 0
BBX 13 24 4 0
BITMAP
0C00
0C00
0600
0600
0300
0000
C018
E038
6030
6060
60E0
30C0
3180
3380
1B00
1E00
1E00
0C00
1C00
1C00
1800
1800
1800
1800
ENDCHAR
STARTCHAR 1EF3
ENCODING 7923
SWIDTH 480 0
DWIDTH 12 0
BBX 14 24 0 -5
BITMAP
0300
0180
0180
0080
0000
0000
180C
181C
1818
1830
1C30
0C60
0C60
0CC0
0CC0
0780
0700
0700
0600
0600
0C00
1800
F800
F000
ENDCHAR
STARTCHAR 1EF4
ENCODING 7924
SWIDTH 600 0
DWIDTH 15 0
BBX 13 24 4 -6
BITMAP
C018
E038
6030
6060
60E0
30C0
3180
3380
1B00
1E00
1E00
0C00
1C00
1C00
1800
1800
1800
1800
0000
0000
0000
3000
3000
2000
ENDCHAR
STARTCHAR 1EF5
ENCODING 7925
SWIDTH 480 0
DWIDTH 12 0
BBX 14 18 0 -6
BITMAP
180C
181C
1818
1830
1C30
0C60
0C60
0CC0
0CC0
0780
0700
0700
0600
0600
0C00
1800
F8C0
F0C0
ENDCHAR
STARTCHAR 1EF6
ENCODING 7926
SWIDTH 600 0
DWIDTH 15 0
BBX 13 24 4 0
BITMAP
0380
06C0
00C0
0080
0300
0000
C018
E038
6030
6060
60E0
30C0
3180
3380
1B00
1E00
1E00
0C00
1C00
1C00
1800
1800
1800
1800
ENDCHAR
STARTCHAR 1EF7
ENCODING 7927
SWIDTH 480 0
DWIDTH 12 0
BBX 14 25 0 -5
BITMAP
0040
01F0
0330
0020
00C0
0000
0000
180C
181C
1818
1830
1C30
0C60
0C60
0CC0
0CC0
0780
0700
0700
0600
0600
0C00
1800
F800
F000
ENDCHAR
STARTCHAR 1EF8
ENCODING 7928
SWIDTH 600 0
DWIDTH 15 0
BBX 13 23 4 0
BITMAP
0630
0FE0
19C0
0000
0000
C018
E038
6030
6060
60E0
30C0
3180
3380
1B00
1E00
1E00
0C00
1C00
1C00
1800
1800
1800
1800
ENDCHAR
STARTCHAR 1EF9
ENCODING 7929
SWIDTH 480 0
DWIDTH 12 0
BBX 14 23 0 -5
BITMAP
03D8
06F0
0000
0000
0000
180C
181C
1818
1830
1C30
0C60
0C60
0CC0
0CC0
0780
0700
0700
0600
0600
0C00
1800
F800
F000
ENDCHAR
STARTCHAR 2013
ENCODING 8211
SWIDTH 640 0
DWIDTH 16 0
BBX 11 2 4 7
BITMAP
FFE0
FFE0
ENDCHAR
STARTCHAR 2014
ENCODING 8212
SWIDTH 760 0
DWIDTH 19 0
BBX 14 2 4 7
BITMAP
FFFC
FFFC
ENDCHAR
STARTCHAR 2018
ENCODING 8216
SWIDTH 280 0
DWIDTH 7 0
BBX 4 7 3 12
BITMAP
10
20
40
40
E0
E0
60
ENDCHAR
STARTCHAR 2019
ENCODING 8217
SWIDTH 240 0
DWIDTH 6 0
BBX 3 6 2 13
BITMAP
E0
E0
20
20
40
80
ENDCHAR
STARTCHAR 201A
ENCODING 8218
SWIDTH 280 0
DWIDTH 7 0
BBX 3 6 2 -3
BITMAP
E0
E0
20
20
40
80
ENDCHAR
STARTCHAR 201C
ENCODING 8220
SWIDTH 560 0
DWIDTH 14 0
BBX 9 7 4 12
BITMAP
1080
2100
4200
C200
E700
E700
4200
ENDCHAR
STARTCHAR 201D
ENCODING 8221
SWIDTH 560 0
DWIDTH 14 0
BBX 9 7 4 12
BITMAP
2100
7380
7380
2180
2100
4300
8400
ENDCHAR
STARTCHAR 201E
ENCODING 8222
SWIDTH 480 0
DWIDTH 12 0
BBX 9 6 2 -4
BITMAP
E380
E380
2180
2100
4300
8400
ENDCHAR
STARTCHAR 2020
ENCODING 8224
SWIDTH 560 0
DWIDTH 14 0
BBX 10 24 4 -6
BITMAP
0600
0600
0600
0600
0400
FFC0
FFC0
0C00
0C00
0C00
0800
1800
1800
1800
1800
1800
1000
3000
3000
3000
3000
3000
2000
6000
ENDCHAR
STARTCHAR 2021
ENCODING 8225
SWIDTH 560 0
DWIDTH 14 0
BBX 12 24 2 -6
BITMAP
0180
0180
0180
0180
0100
3FF0
3FF0
0300
0300
0300
0200
0600
0600
0600
0600
0600
0C00
0C00
FFC0
FFC0
0C00
0C00
1800
1800
ENDCHAR
STARTCHAR 2022
ENCODING 8226
SWIDTH 360 0
DWIDTH 9 0
BBX 5 5 4 7
BITMAP
70
F8
F8
F0
E0
ENDCHAR
STARTCHAR 2026
ENCODING 8230
SWIDTH 800 0
DWIDTH 20 0
BBX 16 3 2 0
BITMAP
4182
E187
E186
ENDCHAR
STARTCHAR 2030
ENCODING 8240
SWIDTH 1160 0
DWIDTH 29 0
BBX 27 18 3 0
BITMAP
1C030000
7E060000
460C0000
C60C0000
C6180000
C4300000
7C300000
00600000
00C00000
00C00000
01800000
030703C0
030D86C0
06188C60
0C108860
0C108840
18198CC0
301F0F80
ENDCHAR
STARTCHAR 2039
ENCODING 8249
SWIDTH 360 0
DWIDTH 9 0
BBX 7 10 3 3
BITMAP
0E
1C
38
60
C0
C0
E0
70
30
18
ENDCHAR
STARTCHAR 203A
ENCODING 8250
SWIDTH 360 0
DWIDTH 9 0
BBX 7 10 2 3
BITMAP
30
38
1C
0C
06
06
0C
18
70
E0
ENDCHAR
STARTCHAR 2044
ENCODING 8260
SWIDTH 440 0
DWIDTH 11 0
BBX 15 18 0 0
BITMAP
0006
000C
001C
0018
0030
0060
00C0
00C0
0180
0300
0600
0600
0C00
1800
3000
7000
6000
C000
ENDCHAR
STARTCHAR 2070
ENCODING 8304
SWIDTH 320 0
DWIDTH 8 0
BBX 7 10 3 9
BITMAP
1C
66
42
C2
C2
C6
C6
CC
78
30
ENDCHAR
STARTCHAR 2074
ENCODING 8308
SWIDTH 320 0
DWIDTH 8 0
BBX 7 9 3 10
BITMAP
0C
0C
14
24
4C
8C
FE
08
08
ENDCHAR
STARTCHAR 2075
ENCODING 8309
SWIDTH 280 0
DWIDTH 7 0
BBX 7 9 3 10
BITMAP
7E
40
40
FC
CC
04
04
8C
F8
ENDCHAR
STARTCHAR 2076
ENCODING 8310
SWIDTH 280 0
DWIDTH 7 0
BBX 6 9 3 10
BITMAP
18
10
20
58
EC
84
84
8C
F8
ENDCHAR
STARTCHAR 2077
ENCODING 8311
SWIDTH 280 0
DWIDTH 7 0
BBX 7 9 3 10
BITMAP
7E
06
04
08
18
10
30
20
C0
ENDCHAR
STARTCHAR 2078
ENCODING 8312
SWIDTH 320 0
DWIDTH 8 0
BBX 7 10 3 9
BITMAP
3C
66
42
46
3C
C4
86
84
FC
60
ENDCHAR
STARTCHAR 2079
ENCODING 8313
SWIDTH 280 0
DWIDTH 7 0
BBX 7 10 3 9
BITMAP
3C
66
42
C6
C6
7C
08
10
30
60
ENDCHAR
STARTCHAR 2080
ENCODING 8320
SWIDTH 320 0
DWIDTH 8 0
BBX 8 9 0 -6
BITMAP
3E
62
63
43
C2
C2
C6
4C
78
ENDCHAR
STARTCHAR 2081
ENCODING 8321
SWIDTH 240 0
DWIDTH 6 0
BBX 5 9 0 -6
BITMAP
30
70
50
10
30
30
20
20
F8
ENDCHAR
STARTCHAR 2082
ENCODING 8322
SWIDTH 280 0
DWIDTH 7 0
BBX 7 9 0 -6
BITMAP
3C
66
42
06
0C
18
30
C0
FC
ENDCHAR
STARTCHAR 2083
ENCODING 8323
SWIDTH 280 0
DWIDTH 7 0
BBX 7 9 0 -6
BITMAP
3E
62
02
06
1C
06
06
C4
78
ENDCHAR
STARTCHAR 2084
ENCODING 8324
SWIDTH 320 0
DWIDTH 8 0
BBX 7 9 0 -6
BITMAP
06
0E
14
24
64
CC
FE
0C
08
ENDCHAR
STARTCHAR 2085
ENCODING 8325
SWIDTH 280 0
DWIDTH 7 0
BBX 7 9 0 -6
BITMAP
7E
60
40
7C
46
06
06
CC
78
ENDCHAR
STARTCHAR 2086
ENCODING 8326
SWIDTH 280 0
DWIDTH 7 0
BBX 7 9 0 -6
BITMAP
08
10
20
7C
6C
C6
86
C4
78
ENDCHAR
STARTCHAR 2087
ENCODING 8327
SWIDTH 280 0
DWIDTH 7 0
BBX 6 9 1 -6
BITMAP
FC
04
08
18
10
30
60
40
C0
ENDCHAR
STARTCHAR 2088
ENCODING 8328
SWIDTH 320 0
DWIDTH 8 0
BBX 7 9 0 -6
BITMAP
3E
62
42
66
3C
C6
C6
C6
7C
ENDCHAR
STARTCHAR 2089
ENCODING 8329
SWIDTH 280 0
DWIDTH 7 0
BBX 6 9 1 -6
BITMAP
7C
C4
84
84
CC
78
10
30
60
ENDCHAR
STARTCHAR 20AB
ENCODING 8363
SWIDTH 560 0
DWIDTH 14 0
BBX 16 21 2 0
BITMAP
000C
000C
00FF
00FE
000C
079C
1FD8
3878
7038
6018
6018
E038
E030
6070
70F0
7FB0
1F30
0000
0000
7FE0
FFE0
ENDCHAR
STARTCHAR 20AC
ENCODING 8364
SWIDTH 680 0
DWIDTH 17 0
BBX 17 17 1 0
BITMAP
00FE00
01FF00
030380
060180
0E0180
0C0180
7FE000
180000
180000
180000
FFC000
180000
180300
1C0600
0E0C00
0FF800
03F000
ENDCHAR
STARTCHAR 2122
ENCODING 8482
SWIDTH 360 0
DWIDTH 9 0
BBX 8 5 4 13
BITMAP
FB
5B
9D
96
92
ENDCHAR
STARTCHAR 215B
ENCODING 8539
SWIDTH 880 0
DWIDTH 22 0
BBX 19 18 3 0
BITMAP
100180
300180
500300
B00600
300C00
300C00
201800
203000
F86000
00E1C0
00C360
018620
030660
0603C0
060460
0C0C60
180C60
3007C0
ENDCHAR
STARTCHAR 215C
ENCODING 8540
SWIDTH 840 0
DWIDTH 21 0
BBX 18 18 3 0
BITMAP
180180
7E0300
460600
060600
1C0C00
1C1800
043000
CC3000
F86000
20C380
0186C0
018C40
030CC0
060780
0C0CC0
1818C0
1818C0
300F80
ENDCHAR
STARTCHAR 215D
ENCODING 8541
SWIDTH 880 0
DWIDTH 22 0
BBX 19 18 3 0
BITMAP
7E0180
7E0300
400300
580600
EC0C00
041800
041800
CC3000
786000
00C1C0
00C360
018620
030660
0603C0
0C0460
0C0C60
180C60
3007C0
ENDCHAR
STARTCHAR 215E
ENCODING 8542
SWIDTH 880 0
DWIDTH 22 0
BBX 18 18 4 0
BITMAP
000300
FC0600
080600
180C00
101800
203000
603000
406000
C0C000
018380
0186C0
030440
0604C0
0C0780
180CC0
1808C0
3008C0
600F80
ENDCHAR
STARTCHAR 2212
ENCODING 8722
SWIDTH 600 0
DWIDTH 15 0
BBX 10 2 4 7
BITMAP
FFC0
FFC0
ENDCHAR
STARTCHAR 2215
ENCODING 8725
SWIDTH 480 0
DWIDTH 12 0
BBX 13 18 2 0
BITMAP
0018
0030
0030
0060
00C0
00C0
0180
0300
0300
0600
0C00
0C00
1800
3000
3000
6000
C000
C000
ENDCHAR
STARTCHAR 2248
ENCODING 8776
SWIDTH 560 0
DWIDTH 14 0
BBX 11 8 3 4
BITMAP
1C60
7FC0
6380
0000
0000
10C0
7D80
C700
ENDCHAR
STARTCHAR 2260
ENCODING 8800
SWIDTH 720 0
DWIDTH 18 0
BBX 13 15 4 0
BITMAP
0038
0030
0060
7FF8
7FF8
0180
0300
0600
0C00
FFF0
FFF0
3000
6000
6000
C000
ENDCHAR
STARTCHAR 2264
ENCODING 8804
SWIDTH 600 0
DWIDTH 15 0
BBX 12 15 3 0
BITMAP
0010
0070
01C0
0700
1C00
3000
3C00
0E00
0780
01C0
0040
0000
0000
0000
FFC0
ENDCHAR
STARTCHAR 2265
ENCODING 8805
SWIDTH 600 0
DWIDTH 15 0
BBX 11 15 3 0
BITMAP
1000
1C00
1E00
0780
01E0
0060
01C0
0700
1C00
7000
4000
0000
0000
0000
FFC0
ENDCHAR
ENDFONT
